<svg width="459" height="67" viewBox="0 0 459 67" fill="none" xmlns="http://www.w3.org/2000/svg">
<path d="M0.5625 50.3523V17.2898H6.10417V50.3523H0.5625Z" fill="white"/>
<path d="M18.6824 50.3523V17.2898H22.1615L46.8907 39.4148C47.4584 39.9148 48.0574 40.519 48.6824 41.2273C49.3178 41.9356 49.974 42.7169 50.6407 43.5606C50.474 42.5085 50.349 41.4044 50.2657 40.2481C50.1824 39.0815 50.1407 37.4773 50.1407 35.4356V17.2898H55.2032V50.3523H52.1199L26.724 27.3731C26.599 27.2638 26.4115 27.0971 26.1615 26.8731C24.9115 25.7481 23.9792 24.6752 23.3699 23.644C23.4949 24.644 23.5834 25.7169 23.6407 26.8523C23.7084 27.9929 23.7449 29.3315 23.7449 30.8731V50.3523H18.6824Z" fill="white"/>
<path d="M67.7865 50.3523V17.2898H73.3282V50.3523H67.7865Z" fill="white"/>
<path d="M116.865 21.8106H90.9688V45.7481H116.865V36.0606H103.49V31.8315H122.365V42.5398C122.365 45.5554 121.823 47.6127 120.74 48.7065C119.656 49.8054 117.615 50.3523 114.615 50.3523H93.2188C90.2031 50.3523 88.1563 49.8054 87.0729 48.7065C86 47.5971 85.4688 45.5398 85.4688 42.5398V25.1231C85.4688 22.1231 86 20.071 87.0729 18.9565C88.1563 17.8471 90.2031 17.2898 93.2188 17.2898H114.615C117.573 17.2898 119.599 17.8315 120.698 18.9148C121.807 19.9877 122.365 21.9304 122.365 24.7481V25.5606L116.865 26.644V21.8106Z" fill="white"/>
<path d="M158.166 21.5815H139.208V33.1856H158.166C159.541 33.1856 160.479 32.9356 160.979 32.4356C161.479 31.9356 161.729 31.0606 161.729 29.8106V24.9981C161.729 23.7481 161.468 22.8679 160.958 22.3523C160.442 21.8419 159.51 21.5815 158.166 21.5815ZM133.666 50.3523V17.2898H160.312C162.796 17.2898 164.583 17.8002 165.666 18.8106C166.76 19.8263 167.312 21.4565 167.312 23.7065V31.0815C167.312 33.321 166.76 34.946 165.666 35.9565C164.583 36.9721 162.796 37.4773 160.312 37.4773H155.458L170.562 50.3523H162.374L148.937 37.4773H139.208V50.3523H133.666Z" fill="white"/>
<path d="M183.466 37.9981H201.257L192.341 21.0815L183.466 37.9981ZM171.486 50.3523L189.528 17.2898H195.445L213.799 50.3523H207.736L203.507 42.2273H181.153L176.924 50.3523H171.486Z" fill="white"/>
<path d="M276.05 26.8528C276.159 26.8528 276.258 26.9049 276.342 26.9986C276.435 27.082 276.488 27.1809 276.488 27.2903C276.488 27.4309 276.435 27.5403 276.342 27.6236C276.258 27.707 276.159 27.7486 276.05 27.7486H270.675C270.534 27.7486 270.425 27.707 270.342 27.6236C270.258 27.5299 270.217 27.4153 270.217 27.2903V17.6653C270.217 17.5403 270.258 17.4361 270.342 17.3528C270.435 17.2591 270.555 17.207 270.696 17.207C270.821 17.207 270.93 17.2591 271.029 17.3528C271.123 17.4361 271.175 17.5403 271.175 17.6653V27.1236L270.883 26.8528H276.05Z" fill="white"/>
<path d="M281.717 17.207H287.238C287.363 17.207 287.467 17.2486 287.551 17.332C287.645 17.4153 287.697 17.5299 287.697 17.6653C287.697 17.7903 287.645 17.8945 287.551 17.9778C287.467 18.0611 287.363 18.1028 287.238 18.1028H282.051L282.217 17.832V22.0611L282.051 21.8736H286.551C286.676 21.8736 286.78 21.9257 286.863 22.0195C286.957 22.1028 287.009 22.207 287.009 22.332C287.009 22.457 286.957 22.5611 286.863 22.6445C286.78 22.7278 286.676 22.7695 286.551 22.7695H282.072L282.217 22.6028V26.957L282.134 26.8528H287.238C287.363 26.8528 287.467 26.9049 287.551 26.9986C287.645 27.082 287.697 27.1861 287.697 27.3111C287.697 27.4361 287.645 27.5403 287.551 27.6236C287.467 27.707 287.363 27.7486 287.238 27.7486H281.717C281.592 27.7486 281.478 27.707 281.384 27.6236C281.301 27.5299 281.259 27.4153 281.259 27.2903V17.6653C281.259 17.5403 281.301 17.4361 281.384 17.3528C281.478 17.2591 281.592 17.207 281.717 17.207Z" fill="white"/>
<path d="M296.365 18.3736L292.698 27.457C292.667 27.5559 292.615 27.634 292.531 27.6861C292.458 27.7434 292.386 27.7695 292.302 27.7695C292.162 27.7695 292.057 27.7382 291.99 27.6653C291.917 27.582 291.875 27.4882 291.865 27.3736C291.849 27.3215 291.854 27.259 291.886 27.1861L295.865 17.4569C295.906 17.3476 295.958 17.2694 296.031 17.2278C296.115 17.1861 296.203 17.1653 296.302 17.1653C296.396 17.1653 296.479 17.1965 296.552 17.2486C296.636 17.3059 296.698 17.3736 296.74 17.4569L300.698 27.1445C300.724 27.2017 300.74 27.2642 300.74 27.332C300.74 27.4726 300.688 27.582 300.594 27.6653C300.511 27.7382 300.406 27.7695 300.281 27.7695C300.182 27.7695 300.094 27.7434 300.011 27.6861C299.938 27.634 299.886 27.5559 299.844 27.457L296.094 18.3111L296.365 18.3736ZM293.573 24.707L293.948 23.8111H298.636L298.802 24.707H293.573Z" fill="white"/>
<path d="M309.91 17.207C310.66 17.207 311.311 17.3476 311.869 17.6236C312.421 17.9049 312.879 18.2903 313.244 18.7903C313.603 19.2903 313.869 19.8632 314.035 20.4986C314.212 21.1236 314.306 21.7851 314.306 22.4778C314.306 23.4361 314.145 24.3216 313.827 25.1236C313.52 25.9153 313.041 26.5559 312.389 27.0403C311.733 27.5143 310.91 27.7486 309.91 27.7486H306.077C305.952 27.7486 305.837 27.707 305.744 27.6236C305.66 27.5299 305.619 27.4153 305.619 27.2903V17.6653C305.619 17.5403 305.66 17.4361 305.744 17.3528C305.837 17.2591 305.952 17.207 306.077 17.207H309.91ZM309.764 26.8528C310.608 26.8528 311.291 26.6601 311.806 26.2695C312.332 25.8841 312.723 25.3528 312.973 24.6861C313.223 24.0195 313.348 23.2851 313.348 22.4778C313.348 21.8945 313.275 21.3424 313.139 20.8111C312.999 20.2851 312.785 19.8216 312.494 19.4153C312.212 19.0143 311.848 18.6966 311.389 18.457C310.931 18.2226 310.389 18.1028 309.764 18.1028H306.452L306.577 17.957V27.0195L306.473 26.8528H309.764Z" fill="white"/>
<path d="M320.436 27.2903C320.421 27.4153 320.363 27.5299 320.27 27.6236C320.171 27.707 320.061 27.7486 319.936 27.7486C319.796 27.7486 319.686 27.707 319.603 27.6236C319.52 27.5299 319.478 27.4153 319.478 27.2903V17.6653C319.478 17.5403 319.52 17.4361 319.603 17.3528C319.697 17.2591 319.817 17.207 319.957 17.207C320.082 17.207 320.192 17.2591 320.291 17.3528C320.384 17.4361 320.436 17.5403 320.436 17.6653V27.2903Z" fill="white"/>
<path d="M333.981 17.207C334.116 17.207 334.221 17.2486 334.294 17.332C334.361 17.4049 334.398 17.4986 334.398 17.6236V27.2695C334.398 27.4257 334.346 27.5403 334.252 27.6236C334.169 27.707 334.064 27.7486 333.939 27.7486C333.882 27.7486 333.82 27.7382 333.752 27.707C333.679 27.6809 333.627 27.6445 333.585 27.6028L326.856 18.5403L327.106 18.4153V27.332C327.106 27.4466 327.064 27.5403 326.981 27.6236C326.908 27.707 326.814 27.7486 326.689 27.7486C326.564 27.7486 326.46 27.707 326.377 27.6236C326.304 27.5403 326.273 27.4466 326.273 27.332V17.6653C326.273 17.5143 326.314 17.4049 326.398 17.332C326.491 17.2486 326.596 17.207 326.71 17.207C326.762 17.207 326.825 17.2226 326.898 17.2486C326.965 17.2799 327.023 17.3216 327.064 17.3736L333.71 26.3111L333.564 26.582V17.6236C333.564 17.4986 333.606 17.4049 333.689 17.332C333.773 17.2486 333.866 17.207 333.981 17.207Z" fill="white"/>
<path d="M344.997 27.8944C344.215 27.8944 343.497 27.759 342.83 27.4986C342.174 27.2226 341.606 26.8423 341.122 26.3528C340.632 25.8684 340.252 25.3007 339.976 24.6444C339.71 23.9778 339.58 23.259 339.58 22.4778C339.58 21.7017 339.71 20.9882 339.976 20.3319C340.252 19.6653 340.632 19.0923 341.122 18.6028C341.606 18.1184 342.174 17.7434 342.83 17.4778C343.497 17.2017 344.215 17.0611 344.997 17.0611C345.523 17.0611 346.038 17.1236 346.538 17.2486C347.038 17.3736 347.481 17.5611 347.872 17.8111C347.939 17.8528 347.986 17.9101 348.018 17.9778C348.059 18.0507 348.08 18.1184 348.08 18.1861C348.08 18.3267 348.028 18.4361 347.934 18.5194C347.851 18.6028 347.757 18.6444 347.663 18.6444C347.606 18.6444 347.559 18.6392 347.518 18.6236C347.476 18.6132 347.434 18.5976 347.393 18.5819C347.044 18.3892 346.669 18.2382 346.268 18.1236C345.877 18.0142 345.455 17.9569 344.997 17.9569C344.132 17.9569 343.361 18.1548 342.684 18.5403C342.018 18.9309 341.486 19.4726 341.101 20.1653C340.726 20.8476 340.538 21.6184 340.538 22.4778C340.538 23.3423 340.726 24.1132 341.101 24.7903C341.486 25.4726 342.018 26.0142 342.684 26.4153C343.361 26.8059 344.132 26.9986 344.997 26.9986C345.455 26.9986 345.903 26.9361 346.351 26.8111C346.809 26.6757 347.205 26.4934 347.538 26.2694L347.476 26.5819V23.1236L347.684 23.3319H345.08C344.955 23.3319 344.84 23.2903 344.747 23.2069C344.663 23.1132 344.622 22.9986 344.622 22.8736C344.622 22.7382 344.663 22.634 344.747 22.5611C344.84 22.4778 344.955 22.4361 345.08 22.4361H347.955C348.09 22.4361 348.205 22.4778 348.288 22.5611C348.372 22.6444 348.413 22.7486 348.413 22.8736V26.5194C348.413 26.5923 348.393 26.6653 348.351 26.7486C348.309 26.8215 348.252 26.8736 348.184 26.9153C347.736 27.2226 347.247 27.4673 346.705 27.6444C346.163 27.8111 345.59 27.8944 344.997 27.8944Z" fill="white"/>
<path d="M361.365 17.207H366.886C367.011 17.207 367.115 17.2486 367.198 17.332C367.292 17.4153 367.344 17.5299 367.344 17.6653C367.344 17.7903 367.292 17.8945 367.198 17.9778C367.115 18.0611 367.011 18.1028 366.886 18.1028H361.698L361.865 17.832V22.0611L361.698 21.8736H366.198C366.323 21.8736 366.427 21.9257 366.511 22.0195C366.604 22.1028 366.656 22.207 366.656 22.332C366.656 22.457 366.604 22.5611 366.511 22.6445C366.427 22.7278 366.323 22.7695 366.198 22.7695H361.719L361.865 22.6028V26.957L361.781 26.8528H366.886C367.011 26.8528 367.115 26.9049 367.198 26.9986C367.292 27.082 367.344 27.1861 367.344 27.3111C367.344 27.4361 367.292 27.5403 367.198 27.6236C367.115 27.707 367.011 27.7486 366.886 27.7486H361.365C361.24 27.7486 361.125 27.707 361.031 27.6236C360.948 27.5299 360.906 27.4153 360.906 27.2903V17.6653C360.906 17.5403 360.948 17.4361 361.031 17.3528C361.125 17.2591 361.24 17.207 361.365 17.207Z" fill="white"/>
<path d="M379.95 17.207C380.085 17.207 380.2 17.2486 380.283 17.332C380.366 17.4153 380.408 17.5299 380.408 17.6653V23.8945C380.408 24.6341 380.226 25.3059 379.866 25.9153C379.517 26.5143 379.043 26.9934 378.45 27.3528C377.866 27.7174 377.2 27.8945 376.45 27.8945C375.71 27.8945 375.043 27.7174 374.45 27.3528C373.851 26.9934 373.371 26.5143 373.012 25.9153C372.663 25.3059 372.491 24.6341 372.491 23.8945V17.6653C372.491 17.5299 372.533 17.4153 372.616 17.332C372.7 17.2486 372.814 17.207 372.97 17.207C373.095 17.207 373.2 17.2486 373.283 17.332C373.377 17.4153 373.429 17.5299 373.429 17.6653V23.8945C373.429 24.4778 373.564 24.9986 373.845 25.457C374.121 25.9153 374.491 26.2851 374.95 26.5611C375.408 26.8424 375.908 26.9778 376.45 26.9778C377.017 26.9778 377.533 26.8424 377.991 26.5611C378.45 26.2851 378.814 25.9153 379.095 25.457C379.371 24.9986 379.512 24.4778 379.512 23.8945V17.6653C379.512 17.5299 379.543 17.4153 379.616 17.332C379.7 17.2486 379.809 17.207 379.95 17.207Z" fill="white"/>
<path d="M386.781 27.7486C386.625 27.7486 386.5 27.707 386.406 27.6236C386.307 27.5299 386.26 27.4153 386.26 27.2903V17.6653C386.26 17.5403 386.302 17.4361 386.385 17.3528C386.479 17.2591 386.594 17.207 386.719 17.207H390.781C391.349 17.207 391.854 17.332 392.302 17.582C392.76 17.8216 393.114 18.1601 393.364 18.6028C393.625 19.0351 393.76 19.5195 393.76 20.0611C393.76 20.4934 393.677 20.8945 393.51 21.2695C393.354 21.6445 393.135 21.9674 392.844 22.2278C392.552 22.4778 392.224 22.6601 391.864 22.7695L391.344 22.6028C391.703 22.6445 392.042 22.7695 392.364 22.9778C392.698 23.1757 392.958 23.4518 393.156 23.8111C393.349 24.1757 393.453 24.6028 393.469 25.1028C393.469 25.5351 393.479 25.8736 393.51 26.1236C393.552 26.3632 393.604 26.5403 393.677 26.6653C393.745 26.7799 393.833 26.8684 393.948 26.9361C394.057 26.9934 394.125 27.0768 394.156 27.1861C394.198 27.3007 394.182 27.4049 394.114 27.4986C394.073 27.582 394.015 27.6445 393.948 27.6861C393.875 27.7174 393.802 27.7278 393.719 27.7278C393.635 27.7278 393.552 27.707 393.469 27.6653C393.328 27.5976 393.182 27.4778 393.031 27.3111C392.89 27.1341 392.771 26.8736 392.677 26.5403C392.578 26.207 392.531 25.7486 392.531 25.1653C392.531 24.7643 392.469 24.4361 392.344 24.1861C392.219 23.9361 392.057 23.7486 391.864 23.6236C391.667 23.4882 391.453 23.3893 391.219 23.332C390.979 23.2799 390.76 23.2486 390.552 23.2486H387.052L387.219 23.0403V27.2903C387.219 27.4153 387.177 27.5299 387.094 27.6236C387.01 27.707 386.906 27.7486 386.781 27.7486ZM387.052 22.4153H390.823C391.167 22.3893 391.489 22.2799 391.781 22.082C392.083 21.8893 392.328 21.6236 392.51 21.2903C392.703 20.9466 392.802 20.5403 392.802 20.082C392.802 19.5143 392.604 19.0403 392.219 18.6653C391.828 18.2903 391.323 18.1028 390.698 18.1028H387.094L387.219 17.8736V22.6236L387.052 22.4153Z" fill="white"/>
<path d="M408.777 22.4778C408.777 23.2694 408.652 23.9986 408.402 24.6653C408.163 25.3215 407.819 25.8892 407.361 26.3736C406.913 26.8632 406.381 27.2382 405.756 27.4986C405.142 27.759 404.47 27.8944 403.736 27.8944C402.996 27.8944 402.319 27.759 401.694 27.4986C401.079 27.2382 400.548 26.8632 400.09 26.3736C399.642 25.8892 399.298 25.3215 399.048 24.6653C398.808 23.9986 398.694 23.2694 398.694 22.4778C398.694 21.6861 398.808 20.9673 399.048 20.3111C399.298 19.6444 399.642 19.0715 400.09 18.5819C400.548 18.0976 401.079 17.7226 401.694 17.4569C402.319 17.1965 402.996 17.0611 403.736 17.0611C404.47 17.0611 405.142 17.1965 405.756 17.4569C406.381 17.7226 406.913 18.0976 407.361 18.5819C407.819 19.0715 408.163 19.6444 408.402 20.3111C408.652 20.9673 408.777 21.6861 408.777 22.4778ZM407.819 22.4778C407.819 21.5923 407.642 20.8059 407.298 20.1236C406.949 19.4465 406.47 18.9153 405.861 18.5403C405.246 18.1548 404.538 17.9569 403.736 17.9569C402.944 17.9569 402.236 18.1548 401.611 18.5403C400.996 18.9153 400.517 19.4465 400.173 20.1236C399.824 20.8059 399.652 21.5923 399.652 22.4778C399.652 23.3684 399.824 24.1548 400.173 24.8319C400.517 25.5142 400.996 26.0507 401.611 26.4361C402.236 26.8111 402.944 26.9986 403.736 26.9986C404.538 26.9986 405.246 26.8111 405.861 26.4361C406.47 26.0507 406.949 25.5142 407.298 24.8319C407.642 24.1548 407.819 23.3684 407.819 22.4778Z" fill="white"/>
<path d="M417.97 17.207C418.522 17.207 419.016 17.3424 419.449 17.6028C419.891 17.8528 420.24 18.207 420.49 18.6653C420.74 19.1132 420.865 19.6236 420.865 20.207C420.865 20.7903 420.74 21.3216 420.49 21.7903C420.24 22.2486 419.891 22.6184 419.449 22.8945C419.016 23.1601 418.522 23.2903 417.97 23.2903H414.782L414.845 23.1445V27.2903C414.845 27.4153 414.792 27.5299 414.699 27.6236C414.615 27.707 414.516 27.7486 414.407 27.7486C414.266 27.7486 414.157 27.707 414.074 27.6236C413.99 27.5299 413.949 27.4153 413.949 27.2903V17.6653C413.949 17.5403 413.99 17.4361 414.074 17.3528C414.167 17.2591 414.282 17.207 414.407 17.207H417.97ZM417.97 22.4153C418.355 22.4153 418.699 22.3216 418.99 22.1236C419.282 21.9309 419.511 21.6653 419.678 21.332C419.845 20.9882 419.928 20.6132 419.928 20.207C419.928 19.7903 419.845 19.4309 419.678 19.1236C419.511 18.8059 419.282 18.5559 418.99 18.3736C418.699 18.1966 418.355 18.1028 417.97 18.1028H414.782L414.845 17.957V22.4986L414.761 22.4153H417.97Z" fill="white"/>
<path d="M426.413 17.207H431.934C432.059 17.207 432.163 17.2486 432.247 17.332C432.34 17.4153 432.393 17.5299 432.393 17.6653C432.393 17.7903 432.34 17.8945 432.247 17.9778C432.163 18.0611 432.059 18.1028 431.934 18.1028H426.747L426.913 17.832V22.0611L426.747 21.8736H431.247C431.372 21.8736 431.476 21.9257 431.559 22.0195C431.653 22.1028 431.705 22.207 431.705 22.332C431.705 22.457 431.653 22.5611 431.559 22.6445C431.476 22.7278 431.372 22.7695 431.247 22.7695H426.768L426.913 22.6028V26.957L426.83 26.8528H431.934C432.059 26.8528 432.163 26.9049 432.247 26.9986C432.34 27.082 432.393 27.1861 432.393 27.3111C432.393 27.4361 432.34 27.5403 432.247 27.6236C432.163 27.707 432.059 27.7486 431.934 27.7486H426.413C426.288 27.7486 426.174 27.707 426.08 27.6236C425.997 27.5299 425.955 27.4153 425.955 27.2903V17.6653C425.955 17.5403 425.997 17.4361 426.08 17.3528C426.174 17.2591 426.288 17.207 426.413 17.207Z" fill="white"/>
<path d="M441.061 18.3736L437.394 27.457C437.363 27.5559 437.311 27.634 437.227 27.6861C437.155 27.7434 437.082 27.7695 436.998 27.7695C436.858 27.7695 436.753 27.7382 436.686 27.6653C436.613 27.582 436.571 27.4882 436.561 27.3736C436.545 27.3215 436.55 27.259 436.582 27.1861L440.561 17.4569C440.602 17.3476 440.655 17.2694 440.727 17.2278C440.811 17.1861 440.899 17.1653 440.998 17.1653C441.092 17.1653 441.175 17.1965 441.248 17.2486C441.332 17.3059 441.394 17.3736 441.436 17.4569L445.394 27.1445C445.42 27.2017 445.436 27.2642 445.436 27.332C445.436 27.4726 445.384 27.582 445.29 27.6653C445.207 27.7382 445.102 27.7695 444.977 27.7695C444.878 27.7695 444.79 27.7434 444.707 27.6861C444.634 27.634 444.582 27.5559 444.54 27.457L440.79 18.3111L441.061 18.3736ZM438.269 24.707L438.644 23.8111H443.332L443.498 24.707H438.269Z" fill="white"/>
<path d="M458.023 17.207C458.158 17.207 458.263 17.2486 458.336 17.332C458.403 17.4049 458.44 17.4986 458.44 17.6236V27.2695C458.44 27.4257 458.388 27.5403 458.294 27.6236C458.211 27.707 458.106 27.7486 457.981 27.7486C457.924 27.7486 457.862 27.7382 457.794 27.707C457.721 27.6809 457.669 27.6445 457.627 27.6028L450.898 18.5403L451.148 18.4153V27.332C451.148 27.4466 451.106 27.5403 451.023 27.6236C450.95 27.707 450.856 27.7486 450.731 27.7486C450.606 27.7486 450.502 27.707 450.419 27.6236C450.346 27.5403 450.315 27.4466 450.315 27.332V17.6653C450.315 17.5143 450.356 17.4049 450.44 17.332C450.533 17.2486 450.638 17.207 450.752 17.207C450.804 17.207 450.867 17.2226 450.94 17.2486C451.007 17.2799 451.065 17.3216 451.106 17.3736L457.752 26.3111L457.606 26.582V17.6236C457.606 17.4986 457.648 17.4049 457.731 17.332C457.815 17.2486 457.908 17.207 458.023 17.207Z" fill="white"/>
<path d="M273.133 48.2378C272.368 48.2482 271.701 48.1336 271.133 47.8836C270.576 47.6336 270.04 47.2586 269.529 46.7586C269.472 46.7169 269.425 46.67 269.383 46.6128C269.352 46.545 269.342 46.4669 269.342 46.3836C269.342 46.2742 269.389 46.17 269.488 46.0711C269.581 45.9617 269.685 45.9044 269.8 45.9044C269.925 45.9044 270.034 45.9565 270.133 46.0503C270.534 46.4825 270.977 46.8107 271.467 47.0294C271.967 47.2534 272.498 47.3628 273.071 47.3628C273.555 47.3628 273.988 47.2898 274.363 47.1336C274.738 46.9825 275.034 46.769 275.258 46.4878C275.477 46.1961 275.592 45.8732 275.592 45.5086C275.592 45.0398 275.467 44.6648 275.217 44.3836C274.967 44.0919 274.633 43.8575 274.217 43.6753C273.81 43.4825 273.352 43.3159 272.842 43.1753C272.435 43.0503 272.05 42.9148 271.675 42.7586C271.3 42.5919 270.967 42.3992 270.675 42.1753C270.383 41.9565 270.154 41.6753 269.988 41.3419C269.831 41.0086 269.758 40.6075 269.758 40.1336C269.758 39.6075 269.894 39.144 270.175 38.7378C270.467 38.3211 270.868 37.9982 271.383 37.7586C271.894 37.5242 272.493 37.4044 273.175 37.4044C273.769 37.4044 274.342 37.5086 274.883 37.7169C275.435 37.9148 275.873 38.2065 276.196 38.5919C276.347 38.7482 276.425 38.894 276.425 39.0294C276.425 39.1284 276.368 39.2273 276.258 39.3211C276.159 39.42 276.055 39.4669 275.946 39.4669C275.831 39.4669 275.743 39.4357 275.675 39.3628C275.508 39.1544 275.29 38.9669 275.029 38.8003C274.779 38.6336 274.493 38.5086 274.175 38.4253C273.852 38.3315 273.519 38.2794 273.175 38.2794C272.701 38.2794 272.279 38.3575 271.904 38.5086C271.529 38.6492 271.227 38.8575 271.008 39.1336C270.8 39.3992 270.696 39.7273 270.696 40.1128C270.696 40.5294 270.81 40.8784 271.05 41.1544C271.3 41.42 271.618 41.644 272.008 41.8211C272.394 42.0034 272.81 42.1648 273.258 42.3003C273.685 42.4253 274.097 42.5659 274.488 42.7169C274.889 42.8732 275.243 43.0659 275.55 43.3003C275.852 43.5398 276.097 43.8315 276.279 44.1753C276.456 44.5242 276.55 44.9669 276.55 45.5086C276.55 46.0242 276.404 46.4878 276.113 46.9044C275.821 47.3107 275.415 47.6336 274.904 47.8836C274.404 48.118 273.81 48.2378 273.133 48.2378Z" fill="white"/>
<path d="M291.107 42.8211C291.107 43.6128 290.982 44.3419 290.732 45.0086C290.492 45.6648 290.149 46.2325 289.69 46.7169C289.242 47.2065 288.711 47.5815 288.086 47.8419C287.471 48.1023 286.8 48.2378 286.065 48.2378C285.326 48.2378 284.649 48.1023 284.024 47.8419C283.409 47.5815 282.878 47.2065 282.419 46.7169C281.971 46.2325 281.628 45.6648 281.378 45.0086C281.138 44.3419 281.024 43.6128 281.024 42.8211C281.024 42.0294 281.138 41.3107 281.378 40.6544C281.628 39.9878 281.971 39.4148 282.419 38.9253C282.878 38.4409 283.409 38.0659 284.024 37.8003C284.649 37.5398 285.326 37.4044 286.065 37.4044C286.8 37.4044 287.471 37.5398 288.086 37.8003C288.711 38.0659 289.242 38.4409 289.69 38.9253C290.149 39.4148 290.492 39.9878 290.732 40.6544C290.982 41.3107 291.107 42.0294 291.107 42.8211ZM290.149 42.8211C290.149 41.9357 289.971 41.1492 289.628 40.4669C289.279 39.7898 288.8 39.2586 288.19 38.8836C287.576 38.4982 286.867 38.3003 286.065 38.3003C285.274 38.3003 284.565 38.4982 283.94 38.8836C283.326 39.2586 282.846 39.7898 282.503 40.4669C282.154 41.1492 281.982 41.9357 281.982 42.8211C281.982 43.7117 282.154 44.4982 282.503 45.1753C282.846 45.8575 283.326 46.394 283.94 46.7794C284.565 47.1544 285.274 47.3419 286.065 47.3419C286.867 47.3419 287.576 47.1544 288.19 46.7794C288.8 46.394 289.279 45.8575 289.628 45.1753C289.971 44.4982 290.149 43.7117 290.149 42.8211Z" fill="white"/>
<path d="M296.737 48.0919C296.596 48.0919 296.487 48.0502 296.403 47.9669C296.32 47.8731 296.278 47.7586 296.278 47.6336V38.0086C296.278 37.8836 296.32 37.7794 296.403 37.6961C296.497 37.6023 296.612 37.5502 296.737 37.5502H302.216C302.341 37.5502 302.445 37.5919 302.528 37.6752C302.622 37.7586 302.674 37.8731 302.674 38.0086C302.674 38.1231 302.622 38.2273 302.528 38.3211C302.445 38.4044 302.341 38.4461 302.216 38.4461H297.132L297.195 38.3419V42.3627L297.112 42.2169H301.528C301.664 42.2169 301.778 42.2586 301.862 42.3419C301.945 42.4252 301.987 42.5294 301.987 42.6544C301.987 42.7794 301.945 42.8836 301.862 42.9669C301.778 43.0502 301.664 43.0919 301.528 43.0919H297.091L297.195 42.9669V47.6336C297.195 47.7586 297.153 47.8731 297.07 47.9669C296.987 48.0502 296.872 48.0919 296.737 48.0919Z" fill="white"/>
<path d="M310.958 48.0919C310.817 48.0919 310.708 48.0502 310.625 47.9669C310.541 47.8731 310.5 47.7586 310.5 47.6336V38.0502H311.437V47.6336C311.437 47.7586 311.385 47.8731 311.291 47.9669C311.208 48.0502 311.093 48.0919 310.958 48.0919ZM307.375 38.4044C307.26 38.4044 307.156 38.3731 307.062 38.3002C306.979 38.2169 306.937 38.1075 306.937 37.9669C306.937 37.8419 306.979 37.7481 307.062 37.6752C307.156 37.5919 307.26 37.5502 307.375 37.5502H314.541C314.666 37.5502 314.77 37.5919 314.854 37.6752C314.948 37.7481 315 37.8523 315 37.9877C315 38.1127 314.948 38.2169 314.854 38.3002C314.77 38.3731 314.666 38.4044 314.541 38.4044H307.375Z" fill="white"/>
<path d="M332.168 37.5086C332.293 37.5086 332.403 37.5503 332.502 37.6336C332.595 37.7065 332.648 37.8159 332.648 37.9669C332.648 38.0242 332.632 38.0919 332.606 38.1753L329.293 47.8003C329.252 47.8992 329.189 47.9774 329.106 48.0294C329.033 48.0711 328.96 48.0919 328.877 48.0919C328.778 48.0919 328.689 48.0711 328.606 48.0294C328.523 47.9774 328.46 47.8992 328.418 47.8003L325.752 41.2169L325.877 41.2378L323.21 47.8003C323.168 47.8992 323.106 47.9774 323.023 48.0294C322.939 48.0711 322.845 48.0919 322.752 48.0919C322.679 48.0919 322.606 48.0711 322.523 48.0294C322.45 47.9774 322.403 47.8992 322.377 47.8003L319.043 38.1753C319.012 38.0919 319.002 38.0294 319.002 37.9878C319.002 37.8367 319.054 37.7169 319.168 37.6336C319.278 37.5503 319.387 37.5086 319.502 37.5086C319.595 37.5086 319.679 37.5399 319.752 37.5919C319.835 37.6492 319.898 37.7169 319.939 37.8003L322.96 46.6336L322.793 46.6544L325.418 40.1128C325.444 40.019 325.491 39.9409 325.564 39.8836C325.648 39.8315 325.736 39.8107 325.835 39.8211C325.929 39.8107 326.012 39.8315 326.085 39.8836C326.168 39.9409 326.231 40.019 326.273 40.1128L328.856 46.6128L328.689 46.6753L331.71 37.8003C331.736 37.7169 331.793 37.6492 331.877 37.5919C331.96 37.5399 332.054 37.5086 332.168 37.5086Z" fill="white"/>
<path d="M341.061 38.7169L337.394 47.8003C337.363 47.8992 337.311 47.9774 337.227 48.0294C337.155 48.0867 337.082 48.1128 336.998 48.1128C336.858 48.1128 336.753 48.0815 336.686 48.0086C336.613 47.9253 336.571 47.8315 336.561 47.7169C336.545 47.6649 336.55 47.6024 336.582 47.5294L340.561 37.8003C340.602 37.6909 340.655 37.6128 340.727 37.5711C340.811 37.5294 340.899 37.5086 340.998 37.5086C341.092 37.5086 341.175 37.5399 341.248 37.5919C341.332 37.6492 341.394 37.7169 341.436 37.8003L345.394 47.4878C345.42 47.5451 345.436 47.6076 345.436 47.6753C345.436 47.8159 345.384 47.9253 345.29 48.0086C345.207 48.0815 345.102 48.1128 344.977 48.1128C344.878 48.1128 344.79 48.0867 344.707 48.0294C344.634 47.9774 344.582 47.8992 344.54 47.8003L340.79 38.6544L341.061 38.7169ZM338.269 45.0503L338.644 44.1544H343.332L343.498 45.0503H338.269Z" fill="white"/>
<path d="M350.836 48.0919C350.679 48.0919 350.554 48.0502 350.461 47.9669C350.362 47.8731 350.315 47.7586 350.315 47.6336V38.0086C350.315 37.8836 350.356 37.7794 350.44 37.6961C350.533 37.6023 350.648 37.5502 350.773 37.5502H354.836C355.403 37.5502 355.908 37.6752 356.356 37.9252C356.815 38.1648 357.169 38.5034 357.419 38.9461C357.679 39.3784 357.815 39.8627 357.815 40.4044C357.815 40.8367 357.731 41.2377 357.565 41.6127C357.408 41.9877 357.19 42.3106 356.898 42.5711C356.606 42.8211 356.278 43.0034 355.919 43.1127L355.398 42.9461C355.757 42.9877 356.096 43.1127 356.419 43.3211C356.752 43.519 357.013 43.795 357.211 44.1544C357.403 44.519 357.507 44.9461 357.523 45.4461C357.523 45.8784 357.533 46.2169 357.565 46.4669C357.606 46.7065 357.658 46.8836 357.731 47.0086C357.799 47.1231 357.888 47.2117 358.002 47.2794C358.112 47.3367 358.179 47.42 358.211 47.5294C358.252 47.644 358.237 47.7481 358.169 47.8419C358.127 47.9252 358.07 47.9877 358.002 48.0294C357.929 48.0606 357.856 48.0711 357.773 48.0711C357.69 48.0711 357.606 48.0502 357.523 48.0086C357.382 47.9409 357.237 47.8211 357.086 47.6544C356.945 47.4773 356.825 47.2169 356.731 46.8836C356.632 46.5502 356.586 46.0919 356.586 45.5086C356.586 45.1075 356.523 44.7794 356.398 44.5294C356.273 44.2794 356.112 44.0919 355.919 43.9669C355.721 43.8315 355.507 43.7325 355.273 43.6752C355.033 43.6231 354.815 43.5919 354.606 43.5919H351.106L351.273 43.3836V47.6336C351.273 47.7586 351.231 47.8731 351.148 47.9669C351.065 48.0502 350.961 48.0919 350.836 48.0919ZM351.106 42.7586H354.877C355.221 42.7325 355.544 42.6231 355.836 42.4252C356.138 42.2325 356.382 41.9669 356.565 41.6336C356.757 41.2898 356.856 40.8836 356.856 40.4252C356.856 39.8575 356.658 39.3836 356.273 39.0086C355.882 38.6336 355.377 38.4461 354.752 38.4461H351.148L351.273 38.2169V42.9669L351.106 42.7586Z" fill="white"/>
<path d="M363.894 37.5502H369.415C369.54 37.5502 369.644 37.5919 369.728 37.6752C369.821 37.7586 369.874 37.8731 369.874 38.0086C369.874 38.1336 369.821 38.2377 369.728 38.3211C369.644 38.4044 369.54 38.4461 369.415 38.4461H364.228L364.394 38.1752V42.4044L364.228 42.2169H368.728C368.853 42.2169 368.957 42.269 369.04 42.3627C369.134 42.4461 369.186 42.5502 369.186 42.6752C369.186 42.8002 369.134 42.9044 369.04 42.9877C368.957 43.0711 368.853 43.1127 368.728 43.1127H364.249L364.394 42.9461V47.3002L364.311 47.1961H369.415C369.54 47.1961 369.644 47.2481 369.728 47.3419C369.821 47.4252 369.874 47.5294 369.874 47.6544C369.874 47.7794 369.821 47.8836 369.728 47.9669C369.644 48.0502 369.54 48.0919 369.415 48.0919H363.894C363.769 48.0919 363.655 48.0502 363.561 47.9669C363.478 47.8731 363.436 47.7586 363.436 47.6336V38.0086C363.436 37.8836 363.478 37.7794 363.561 37.6961C363.655 37.6023 363.769 37.5502 363.894 37.5502Z" fill="white"/>
<path d="M382.641 37.5502C382.766 37.5502 382.875 37.6023 382.974 37.6961C383.068 37.7794 383.12 37.8836 383.12 38.0086V47.6336C383.105 47.7586 383.047 47.8731 382.954 47.9669C382.855 48.0502 382.745 48.0919 382.62 48.0919C382.48 48.0919 382.37 48.0502 382.287 47.9669C382.204 47.8731 382.162 47.7586 382.162 47.6336V38.0086C382.162 37.8836 382.204 37.7794 382.287 37.6961C382.381 37.6023 382.5 37.5502 382.641 37.5502ZM389.704 37.5502C389.839 37.5502 389.954 37.6023 390.037 37.6961C390.131 37.7794 390.183 37.8836 390.183 38.0086V47.6336C390.167 47.7586 390.12 47.8731 390.037 47.9669C389.954 48.0502 389.834 48.0919 389.683 48.0919C389.558 48.0919 389.443 48.0502 389.349 47.9669C389.266 47.8731 389.224 47.7586 389.224 47.6336V38.0086C389.224 37.8836 389.271 37.7794 389.37 37.6961C389.464 37.6023 389.579 37.5502 389.704 37.5502ZM382.558 42.2586H389.724L389.704 43.1336H382.516L382.558 42.2586Z" fill="white"/>
<path d="M405.432 42.8211C405.432 43.6128 405.307 44.3419 405.057 45.0086C404.817 45.6648 404.474 46.2325 404.015 46.7169C403.567 47.2065 403.036 47.5815 402.411 47.8419C401.797 48.1023 401.125 48.2378 400.39 48.2378C399.651 48.2378 398.974 48.1023 398.349 47.8419C397.734 47.5815 397.203 47.2065 396.744 46.7169C396.297 46.2325 395.953 45.6648 395.703 45.0086C395.463 44.3419 395.349 43.6128 395.349 42.8211C395.349 42.0294 395.463 41.3107 395.703 40.6544C395.953 39.9878 396.297 39.4148 396.744 38.9253C397.203 38.4409 397.734 38.0659 398.349 37.8003C398.974 37.5398 399.651 37.4044 400.39 37.4044C401.125 37.4044 401.797 37.5398 402.411 37.8003C403.036 38.0659 403.567 38.4409 404.015 38.9253C404.474 39.4148 404.817 39.9878 405.057 40.6544C405.307 41.3107 405.432 42.0294 405.432 42.8211ZM404.474 42.8211C404.474 41.9357 404.297 41.1492 403.953 40.4669C403.604 39.7898 403.125 39.2586 402.515 38.8836C401.901 38.4982 401.192 38.3003 400.39 38.3003C399.599 38.3003 398.89 38.4982 398.265 38.8836C397.651 39.2586 397.172 39.7898 396.828 40.4669C396.479 41.1492 396.307 41.9357 396.307 42.8211C396.307 43.7117 396.479 44.4982 396.828 45.1753C397.172 45.8575 397.651 46.394 398.265 46.7794C398.89 47.1544 399.599 47.3419 400.39 47.3419C401.192 47.3419 401.901 47.1544 402.515 46.7794C403.125 46.394 403.604 45.8575 403.953 45.1753C404.297 44.4982 404.474 43.7117 404.474 42.8211Z" fill="white"/>
<path d="M418.062 37.5502C418.197 37.5502 418.312 37.5919 418.395 37.6752C418.479 37.7586 418.52 37.8731 418.52 38.0086V44.2377C418.52 44.9773 418.338 45.6492 417.979 46.2586C417.63 46.8575 417.156 47.3367 416.562 47.6961C415.979 48.0606 415.312 48.2377 414.562 48.2377C413.822 48.2377 413.156 48.0606 412.562 47.6961C411.963 47.3367 411.484 46.8575 411.124 46.2586C410.775 45.6492 410.604 44.9773 410.604 44.2377V38.0086C410.604 37.8731 410.645 37.7586 410.729 37.6752C410.812 37.5919 410.926 37.5502 411.083 37.5502C411.208 37.5502 411.312 37.5919 411.395 37.6752C411.489 37.7586 411.541 37.8731 411.541 38.0086V44.2377C411.541 44.8211 411.676 45.3419 411.958 45.8002C412.234 46.2586 412.604 46.6284 413.062 46.9044C413.52 47.1856 414.02 47.3211 414.562 47.3211C415.13 47.3211 415.645 47.1856 416.104 46.9044C416.562 46.6284 416.926 46.2586 417.208 45.8002C417.484 45.3419 417.624 44.8211 417.624 44.2377V38.0086C417.624 37.8731 417.656 37.7586 417.729 37.6752C417.812 37.5919 417.921 37.5502 418.062 37.5502Z" fill="white"/>
<path d="M427.289 48.2378C426.523 48.2482 425.857 48.1336 425.289 47.8836C424.732 47.6336 424.195 47.2586 423.685 46.7586C423.628 46.7169 423.581 46.67 423.539 46.6128C423.508 46.545 423.497 46.4669 423.497 46.3836C423.497 46.2742 423.544 46.17 423.643 46.0711C423.737 45.9617 423.841 45.9044 423.956 45.9044C424.081 45.9044 424.19 45.9565 424.289 46.0503C424.69 46.4825 425.133 46.8107 425.622 47.0294C426.122 47.2534 426.654 47.3628 427.226 47.3628C427.711 47.3628 428.143 47.2898 428.518 47.1336C428.893 46.9825 429.19 46.769 429.414 46.4878C429.633 46.1961 429.747 45.8732 429.747 45.5086C429.747 45.0398 429.622 44.6648 429.372 44.3836C429.122 44.0919 428.789 43.8575 428.372 43.6753C427.966 43.4825 427.508 43.3159 426.997 43.1753C426.591 43.0503 426.206 42.9148 425.831 42.7586C425.456 42.5919 425.122 42.3992 424.831 42.1753C424.539 41.9565 424.31 41.6753 424.143 41.3419C423.987 41.0086 423.914 40.6075 423.914 40.1336C423.914 39.6075 424.049 39.144 424.331 38.7378C424.622 38.3211 425.023 37.9982 425.539 37.7586C426.049 37.5242 426.648 37.4044 427.331 37.4044C427.924 37.4044 428.497 37.5086 429.039 37.7169C429.591 37.9148 430.029 38.2065 430.351 38.5919C430.503 38.7482 430.581 38.894 430.581 39.0294C430.581 39.1284 430.523 39.2273 430.414 39.3211C430.315 39.42 430.211 39.4669 430.101 39.4669C429.987 39.4669 429.898 39.4357 429.831 39.3628C429.664 39.1544 429.445 38.9669 429.185 38.8003C428.935 38.6336 428.648 38.5086 428.331 38.4253C428.008 38.3315 427.674 38.2794 427.331 38.2794C426.857 38.2794 426.435 38.3575 426.06 38.5086C425.685 38.6492 425.383 38.8575 425.164 39.1336C424.956 39.3992 424.851 39.7273 424.851 40.1128C424.851 40.5294 424.966 40.8784 425.206 41.1544C425.456 41.42 425.773 41.644 426.164 41.8211C426.549 42.0034 426.966 42.1648 427.414 42.3003C427.841 42.4253 428.253 42.5659 428.643 42.7169C429.044 42.8732 429.398 43.0659 429.706 43.3003C430.008 43.5398 430.253 43.8315 430.435 44.1753C430.612 44.5242 430.706 44.9669 430.706 45.5086C430.706 46.0242 430.56 46.4878 430.268 46.9044C429.976 47.3107 429.57 47.6336 429.06 47.8836C428.56 48.118 427.966 48.2378 427.289 48.2378Z" fill="white"/>
<path d="M436.325 37.5502H441.846C441.971 37.5502 442.075 37.5919 442.158 37.6752C442.252 37.7586 442.304 37.8731 442.304 38.0086C442.304 38.1336 442.252 38.2377 442.158 38.3211C442.075 38.4044 441.971 38.4461 441.846 38.4461H436.658L436.825 38.1752V42.4044L436.658 42.2169H441.158C441.283 42.2169 441.388 42.269 441.471 42.3627C441.565 42.4461 441.617 42.5502 441.617 42.6752C441.617 42.8002 441.565 42.9044 441.471 42.9877C441.388 43.0711 441.283 43.1127 441.158 43.1127H436.679L436.825 42.9461V47.3002L436.742 47.1961H441.846C441.971 47.1961 442.075 47.2481 442.158 47.3419C442.252 47.4252 442.304 47.5294 442.304 47.6544C442.304 47.7794 442.252 47.8836 442.158 47.9669C442.075 48.0502 441.971 48.0919 441.846 48.0919H436.325C436.2 48.0919 436.085 48.0502 435.992 47.9669C435.908 47.8731 435.867 47.7586 435.867 47.6336V38.0086C435.867 37.8836 435.908 37.7794 435.992 37.6961C436.085 37.6023 436.2 37.5502 436.325 37.5502Z" fill="white"/>
<path d="M242.953 66.698V0.0886157" stroke="white" stroke-width="2.26037"/>
</svg>
