<?xml version="1.0" encoding="utf-8"?>
<!-- Generator: Adobe Illustrator 29.6.1, SVG Export Plug-In . SVG Version: 9.03 Build 0)  -->
<svg version="1.0" id="Layer_1" xmlns="http://www.w3.org/2000/svg" xmlns:xlink="http://www.w3.org/1999/xlink" x="0px" y="0px"
	 viewBox="0 0 445.1 425.2" style="enable-background:new 0 0 445.1 425.2;" xml:space="preserve">
<style type="text/css">
	.st0{fill:#FFFFFF;}
</style>
<g>
	<g>
		<g>
			<path class="st0" d="M399.8,212.6c0,97.9-79.4,177.2-177.3,177.2S45.3,310.5,45.3,212.6S124.6,35.4,222.5,35.4
				S399.8,114.7,399.8,212.6z M386.2,212.7c0-90.4-73.3-163.6-163.7-163.6S58.9,122.3,58.9,212.7s73.3,163.6,163.7,163.6
				S386.2,303,386.2,212.7z"/>
		</g>
		<g>
			<path class="st0" d="M342.6,212.6c0,66.3-53.7,120-120,120s-120-53.7-120-120s53.7-120,120-120S342.6,146.3,342.6,212.6z
				 M341.2,212.6c0-65.5-53.1-118.7-118.7-118.7S103.8,147,103.8,212.6S157,331.3,222.5,331.3S341.2,278.1,341.2,212.6z"/>
		</g>
		<g>
			<path class="st0" d="M213.1,72.2l1.9,17.4c-1,0.1-2.7,0.6-3.6,0c-2.3-2.9-4.5-5.9-6.8-8.7c-0.4-0.5-0.8-1.1-1.4-1.5l1.2,11.2
				c0,0.3-2.6,0.5-3,0.6l-2-17.4c0.2-0.3,3-0.6,3.4-0.3l7.9,10.2l0.7,0.1L210,72.4C210.9,72.4,211.9,72.1,213.1,72.2z"/>
		</g>
		<g>
			<path class="st0" d="M288.1,101l5.2-10c0.4,0,2.9,1,2.6,1.7l-8.1,15l-2.6-1.2c-1-0.6-0.5-2.4-0.6-3.6c-0.2-3-0.3-6.3-0.7-9.3
				c0-0.3,0-0.7,0-1.1c-0.3,0-0.4,0.3-0.5,0.5c-1.7,2.8-3.3,5.9-4.9,8.8c-0.1,0.2-0.2,0.6-0.2,0.6c-0.1,0.1-2.7-1.4-2.8-1.5
				l8.5-15.4c0.5,0.3,2.7,1.3,2.9,1.7c0.2,0.6,0,1.8,0,2.5c0.1,1.7,0.4,3.6,0.5,5.3c0.1,1.6-0.2,3.7,0,5.1
				C287.4,100.8,287.6,101.1,288.1,101z"/>
		</g>
		<g>
			<path class="st0" d="M126.1,114.6c1.2,1.1,2.4,2.2,3.6,3.3c2.3,2.1,4.4,4.3,6.7,6.3c-0.9,0.6-1.6,2.4-2.7,2.5
				c-1.9-0.2-3.7-0.8-5.6-1.2c-0.4-0.1-0.8,0-1.1,0c-2.1-0.4-4.1-1.1-6.2-1.1l8.1,7.8c0.1,0.4-1.7,1.8-2,2.2L114,122.7l1.8-2.3
				l0.8-0.1c2.8,0.6,5.7,1.1,8.6,1.7c0.6,0.1,4.4,1.1,4.6,0.9c0.3-0.2-0.8-0.9-0.9-1c-1.5-1.4-2.9-2.8-4.4-4.2
				c-0.6-0.5-2.8-2.2-3-2.8c-0.1-0.5,1.6-2.2,2-2.2s1.5,1.4,2,1.8C125.7,114.3,125.9,114.4,126.1,114.6z"/>
		</g>
		<g>
			<path class="st0" d="M351.5,154.4c0,0,0,0.5,0.1,0.7c0.2,0.6,1.1,1.8,0.9,2.3l-7.4,10l-0.6,1.1l10.8-4.2c0.3,0.6,1.4,2.4,0.9,3
				l-16.1,6.2c-0.1-0.8-1.3-2.5-1.1-3.1c2-2.9,4.3-5.7,6.3-8.5c0.2-0.2,1.6-2.2,1.5-2.3s-0.7,0-0.9,0.1l-9.6,3.8L335,161
				L351.5,154.4z"/>
		</g>
		<g>
			<path class="st0" d="M334.9,135.4c5.8-1,10.5,3.9,10.1,9.6c-0.3,4.1-5.2,7.9-9.2,8.2c-6.8,0.6-11.9-8.2-7.6-13.6
				C329.6,138,332.9,135.8,334.9,135.4z M340.5,147.1c2.1-2.2,1.8-5.1-0.2-7.2c-2.9-3-9.2,0.2-10.3,3.6c-0.9,2.7,1,6.1,3.9,6.3
				C336.2,150,339,148.7,340.5,147.1z"/>
		</g>
		<g>
			<path class="st0" d="M98.5,218.7l1.4,13.2l-17.6,1.9l-1.2-13c1,0.1,1.8-0.2,2.8-0.2l0.9,9.5c0.7,0.1,4,0,4.2-0.6l-0.9-8.7
				l2.8-0.2l1,8.8c0.3,0.2,4.3-0.3,4.9-0.6l-0.9-9.5C95.9,218.8,97.9,219,98.5,218.7z"/>
		</g>
		<g>
			<path class="st0" d="M254.2,78c-0.3,0.4-8.3-1.6-9.5-1.6c-0.1,0.6-1,3.9-0.7,4.2l8.6,1.4c0,0.4-0.1,2.7-0.2,2.8
				c-0.3,0.4-8.7-1.7-9.1-1.4c0,0,0,0.8,0,1c-0.1,0.7-0.9,3.5-0.7,3.8c0,0,0.5,0.1,0.6,0.2c2.4,0.6,4.9,0.9,7.4,1.2
				c0.4,0.1,1.3,0.2,1.5,0.3c0.4,0.2-0.5,2.2-0.2,2.7l-13.1-2.3l2.9-17.2l12.6,2.1c0.6,0.2,0,1.4-0.1,2
				C254.2,77.5,254.2,78,254.2,78z"/>
		</g>
		<g>
			<path class="st0" d="M170.8,81.7c0.1,0.1,1.1,2.4,0.9,2.5l-7.6,3.3c-0.2,0.2,1.1,2.7,1.3,3.2c0.1,0.2,0.1,0.7,0.1,0.7
				c0.4,0.5,6.2-2.5,7.1-2.8l1,2.2l-0.2,0.4l-6.3,2.7l0.1,0.9l2.7,5.9c0,0.1,0,0.2-0.1,0.4c-0.1,0.2-2.5,1.2-2.8,1.1
				c-0.2-0.1-0.3-0.3-0.4-0.5c-0.9-1.7-1.5-3.5-2.2-5.2c-1.1-2.4-2.2-4.8-3.3-7.2c-0.4-1-1.9-2.7-0.6-3.3c3.1-1.4,6.5-3.2,9.6-4.3
				C170.3,81.8,170.7,81.6,170.8,81.7z"/>
		</g>
		<g>
			<path class="st0" d="M220.7,74.5c-0.1-0.1-0.1-2.7,0-2.8c0.1-0.1,2.9,0,3.4,0c3.3,0.1,6.7,0.2,10,0.5c1.3,0.1,0.7,0.9,0.6,1.8
				c0,0.3,0,1,0,1c-0.1,0.1-2.3,0-2.7,0c-0.6,0-2.4-0.7-2.6,0.1l-0.5,14.5h-3.3l0.4-14.5c0-0.1-0.5-0.6-0.5-0.6
				C224.8,74.5,220.9,74.7,220.7,74.5z"/>
		</g>
		<g>
			<path class="st0" d="M315.6,123.8c-1.1,1.1-2.2,2.2-3.3,3.2c-0.2,0.2,0,0.6-0.5,0.3c-0.4-0.2-1.4-1.4-1.7-1.7
				c-0.1-0.2-0.4-0.3-0.3-0.6l10.2-10.3c0.1-0.5-3.3-3.2-3.5-3.7c-0.1-0.3,1.7-2,1.9-1.9c1,1.3,9.8,9.2,9.7,9.8
				c0,0.2-1.7,1.8-1.9,1.8c-0.6-0.1-3.2-3.6-3.7-3.5c-0.4,0.1-5.4,5.4-6.2,6.2C316,123.6,315.7,123.7,315.6,123.8z"/>
		</g>
		<g>
			<path class="st0" d="M94.4,159.3c0.3,0.3-1.3,4.1-1.6,4.8l0.1,0.3l13.8,4.9l-0.9,3.2L92,167.6c-0.2,0-0.4,0.1-0.5,0.2
				c-0.6,0.9-1.2,4.2-1.7,4.5c-0.3,0.2-0.4,0-0.6-0.1c-0.6-0.2-1.2-0.4-1.8-0.7l4.5-13C92.2,158.7,94.3,159.2,94.4,159.3z"/>
		</g>
		<g>
			<path class="st0" d="M363.3,201.3l-14.2,1c-0.4,0.2-0.3,3.1-0.2,3.7c0.1,1.2,0.3,2.7,0.5,4c0,0.3,0.1,1.2,0,1.3s-2.7,0.3-2.8,0.2
				c-0.3-4.1-0.8-8.2-0.7-12.3l17.1-1.4C363.6,197.9,363.3,200.7,363.3,201.3z"/>
		</g>
		<g>
			<path class="st0" d="M351,272.1c0.1,0.1,0,0.4,0,0.5c-0.1,0.2-1,2.4-1.1,2.5s-0.4,0-0.5,0l-11.4-5.8l-1.4-0.4l-3.9,7.6
				c-0.2,0-0.4,0-0.5,0c-0.2,0-1.9-0.8-2-0.9c-0.5-0.4,5.2-9.8,5.3-11.1L351,272.1z"/>
		</g>
		<g>
			<path class="st0" d="M195.2,92.6c-0.1,0.1-2.7,0.7-2.9,0.7s-0.3-0.1-0.5-0.2l-4.1-17l3.3-0.7L195.2,92.6z"/>
		</g>
		<g>
			
				<rect x="317.41" y="128.9" transform="matrix(0.7811 -0.6244 0.6244 0.7811 -10.1577 232.3169)" class="st0" width="17.7" height="3.5"/>
		</g>
		<g>
			
				<rect x="101.53" y="146.42" transform="matrix(0.4342 -0.9008 0.9008 0.4342 -81.432 180.8839)" class="st0" width="3.5" height="17.7"/>
		</g>
		<g>
			<g>
				<path class="st0" d="M90.2,264c0.5,0.1,2.6-1.2,2.8-0.9l3.5,8.6c0.2,0.1,0.5,0,0.7-0.1c0.3-0.1,3.1-1.2,3.2-1.3
					c0.2-0.2-0.3-1.1-0.3-1.4l-3.1-6.7c-0.1-0.6,2-1.2,2.4-1.5l3.6,8c0.2,0.2,0.5,0.1,0.7,0c1.2-0.4,2.6-1.5,3.9-1.8l-3.9-9.2l2.4-1
					l5.5,11.9l-15.9,7.3L90.2,264z"/>
			</g>
			<g>
				<path class="st0" d="M108,278.4c0.5,0,3.6,5.9,4,6c0.3,0.1,0.5-0.1,0.7-0.2c1.8-0.9,3.7-2.6,5.6-3.5c0.6-0.1,1.5,2.1,1.9,2.6
					l-14.7,9.4l-6.5-10c0.3-0.3,2-1.6,2.3-1.4l4.2,6.7l0.5,0.4c0.5-0.5,3.2-1.8,3.4-2.2c0.1-0.3-0.5-1.2-0.7-1.6
					c-0.4-0.7-3-4.4-2.9-4.7C105.8,279.7,107.8,278.4,108,278.4z"/>
			</g>
			<g>
				<g>
					<path class="st0" d="M104.6,252.2l-16.8,4.4l-0.4-0.7c-0.9-5.2-4.5-10.2,1.1-14.1c3.5-2.4,9.8-3.4,12.7,0.2
						c1.4,1.6,2.5,6.1,3,8.4C104.3,250.6,104.7,252.1,104.6,252.2z M100.9,249.6c-0.1-1.8-0.9-6.2-3.1-6.5c-2.5-0.4-7.1,0.5-8.7,2.7
						c-1.5,2.1,0.1,4.3,0.2,6.6L100.9,249.6z"/>
				</g>
			</g>
		</g>
		<g>
			<g>
				<path class="st0" d="M341.8,260c-5-5-0.7-15.2,6.5-14.5c7.3,0.6,12.4,6.7,8.2,13.8C353.5,264.4,345.7,263.9,341.8,260z
					 M346.8,249c-3.9,0.7-5.6,5.9-2.6,8.5c2.3,2,7.8,3.3,9.8,0.3c1.7-2.5,1.3-5.6-1.3-7.2C351.2,249.6,348.6,248.7,346.8,249z"/>
			</g>
		</g>
		<g>
			<g>
				<path class="st0" d="M157.7,107.7c-2.7,3.5-8.3,4.8-12,2c-4.5-3.4-6.5-10.8-1.4-14.6c4.3-3.3,9.5-2.8,12.7,1.7
					C159.4,100,160.3,104.2,157.7,107.7z M149.4,95.9c-3.2,0.3-5.4,3.1-4.5,6.3c1,4,5.2,7.9,9.2,4.9c2-1.5,2.3-4,1.4-6.2
					C154.5,98.8,152,95.6,149.4,95.9z"/>
			</g>
		</g>
		<g>
			<g>
				<path class="st0" d="M328.7,281.3c4.7-0.7,10.7,3.4,11.2,8.2c0.6,6-5,11.3-11,9.3c-3.3-1.1-6.9-4.3-7.4-8
					C321.1,286.8,324.7,281.8,328.7,281.3z M328.9,284.5c-3.2,0.5-5.1,4-3.8,6.9c0.9,2,4.6,4.6,6.7,4.7c2.5,0.1,5-2.6,5-5
					C336.9,287.6,332.1,284,328.9,284.5z"/>
			</g>
		</g>
		<g>
			<g>
				<path class="st0" d="M361.2,185l-15.8,10.5c0.1-0.8-0.8-2.8-0.7-3.3c0.1-0.4,3-1.9,3.5-2.4c-0.3-2.5-1-4.9-1.4-7.3
					c-0.7-0.1-4-0.2-4.3-0.7s-0.5-2.5-0.8-3.3l18.4,2.8c0.2,0,0.3,0.2,0.3,0.3C360.7,182.1,361.3,184.9,361.2,185z M356.8,183.9
					l-7-0.9c-0.2,0.2,0.8,4.7,0.9,4.9c0.1,0.1,0.5,0,0.7-0.1c0.5-0.2,1.3-1,1.9-1.4c1-0.7,2.1-1.3,3.2-1.9
					C356.7,184.3,357.2,184.2,356.8,183.9z"/>
			</g>
		</g>
		<g>
			<g>
				<path class="st0" d="M310.8,102.7l0.2,0.7l-5,17.6c-0.3,0.3-2.6-1.8-3-2l1.1-4l-0.1-0.3c-0.7-0.5-5.4-4.5-5.8-4.4
					c-0.5,0.1-3.1,2.3-3.5,2.3c-0.2,0-2.3-1.9-2.7-2.2l15.8-9.5C308.6,100.6,310,102.4,310.8,102.7z M307.1,104.9
					c-0.2-0.2-0.6,0.2-0.8,0.3c-1.7,0.9-3.3,2.2-5,3.2c-0.1,0.1-0.5,0-0.3,0.4c0.4,0.8,2.5,1.6,3,2.5c0.6,0.4,0.9,0.6,1.1-0.2
					C305.5,110.4,307.4,105.2,307.1,104.9z"/>
			</g>
		</g>
		<g>
			<g>
				<path class="st0" d="M102.7,181.3l-4.2,0.6c-0.1,0.1-0.8,2.6-0.9,3.1s-0.8,3.9-0.7,4.1c0.1,0.4,3.3,1.9,3.4,2.4
					c0.2,0.7-0.5,2.5-0.7,3.3L84,184.3c0.4-0.8,0.3-3,1-3.3l18.3-3.3c0.2,0,0.1,0.4,0.1,0.6C103.3,179.2,102.8,180.3,102.7,181.3z
					 M95.3,182.5c-0.1-0.1-2.6,0.4-3.1,0.5c-0.4,0.1-0.9-0.1-1.4,0c-0.8,0.1-1.7,0.3-2.5,0.6c0.5,0.3,5.8,4.1,6,3.8
					C94.6,187.1,95.5,182.7,95.3,182.5z"/>
			</g>
		</g>
		<g>
			<g>
				<path class="st0" d="M363.3,227.8c0.1,0.1,0,1.6,0,2c-0.2,1.6-0.6,4.1-1,5.8c-0.4,1.9-1.2,4.2-3.4,4.8c-1.5,0.4-3.9,0.2-5.3-0.7
					c-3.5-2.3-1.9-6.6-1.5-10l-6.5-0.9c0.1-0.9,0.1-2,0.2-2.9c0-0.3,0.1-0.4,0.3-0.5L363.3,227.8z M360.1,230.8l-5.1-0.7
					c0,1.9-1.3,4.8,0.3,6.3c0.9,0.9,2.9,0.7,3.7-0.2C359.5,235.6,360.4,231,360.1,230.8z"/>
			</g>
		</g>
		<g>
			<path class="st0" d="M312.5,163.5l-6.1,4c-1.5,0.6-2.9,1.8-4.4,2.3c-0.8,0.3-2.4,0.3-2.9,0.6c-0.6,0.3-4.2,4.2-5,5
				c-2.9,2.9-5.7,6.1-8.6,9.1c-2.7,2.8-5.6,5.6-8.2,8.5c-0.5,0.3-1.2-0.8-1.6-1.2c-0.3-0.3-0.7-0.4-0.9-0.7c2.9-3.1,6-6.1,8.9-9.2
				c2.2-2.3,4.5-4.9,6.7-7.2c0.9-1,6.5-6.2,6.5-6.8c0-0.2-0.1-0.4-0.1-0.7c0-3.8,0.4-5.1,2.5-8.2c2.4-3.7,7.2-8.4,10.7-11.2
				c0.3-0.3,1.7-1.3,1.9-1.4c0.3-0.1,2.7,0.4,3.1,0.5c1.7,0.4,3,1.3,3.9,2.9c0.3,0.5,0.3,1.1,0.6,1.5c0.6,1.2,2.5,2.8,3.4,4
				c5.5,6.8,11.5,17.8,2.8,24.6c-1.2,1-3.4,2.1-5,2c-4-0.4-7.4-2.7-8.4-6.7C311.1,171.1,311.9,167.4,312.5,163.5z M316.4,148.9
				c-0.7-0.6-3.7-1.2-4.6-0.9c-3.7,3.1-7.7,6.4-10.6,10.3c-1.7,2.3-4.1,6.2-2.9,9.1c0.7,1.6,1.6,1.4,3.1,0.9
				c2.2-0.8,5.4-2.9,7.4-4.2c4-2.8,11.6-8.7,8.3-14.2C317,149.8,316.4,149,316.4,148.9z M318.9,155.8c-0.6,0.2-2.6,6-2.8,6.9
				c-1.2,4.3-3,13.5,2.5,15.5c2,0.7,3.2,0.4,4.9-0.7c7.3-5,1.1-14.9-2.9-20.1C320.2,157.1,319.2,155.7,318.9,155.8z"/>
		</g>
		<g>
			<path class="st0" d="M143.7,152.2c3.4,3.3,9.7,9.5,9,14.8c-0.1,0.7-0.7,1.3-0.3,2c0.2,0.5,1.8,1.8,2.3,2.3
				c4.8,5.3,9.9,10.4,14.8,15.6c0.3,0.3,4.4,4.2,4.1,4.4c-0.1,0-0.3,0-0.6,0.2c-0.6,0.5-1.3,1.9-2.1,1.2c-1.6-1.7-3.3-3.2-4.9-4.9
				c-5.4-5.5-10.5-11.3-16-16.7c-2.8-0.8-5.4-2.1-7.9-3.7c-1.8-1.1-3.7-2.4-5.3-3.8c-0.5-0.1-0.4,0.2-0.3,0.6
				c0.9,5.9,1.8,14.4-5.3,16.7c-2,0.6-4,0.7-5.8-0.2c-6.3-3.1-7.6-9.4-5.2-15.7c2.2-5.9,6.2-10.2,10.3-14.7c0.4-0.4,0.8-1.2,1.2-1.6
				c1.2-1.2,3.3-1.6,5-1.7c1.3-0.1,1.8,0.4,2.8,1.2C140.9,149.4,142.3,150.9,143.7,152.2z M140.7,151.2c-1.1-1-2.4-1.9-3.6-2.8
				c-3.6,0-6.2,1.5-5.9,5.4c0.4,5.8,10.2,11.9,14.9,14.3c0.5,0.3,1.2,0.7,1.7,0.8c0.2,0.1,1.7,0.3,1.8,0.3c0.8-0.2,1.5-1.9,1.6-2.6
				c0.3-4.5-6-11-9.1-13.9C141.8,152.2,141.2,151.7,140.7,151.2z M130.1,155.3c-1.4,1.1-2.6,2.8-3.7,4.3c-3.3,4.8-7.2,12.7-1.5,17.3
				c2.2,1.7,4.5,2,6.7,0.2c4.2-3.2,2-11.9,0.6-16.2C131.7,159,130.8,157.2,130.1,155.3z"/>
		</g>
		<g>
			<g>
				<path class="st0" d="M212.4,118.6v7.9h-14.5l-0.3,0.3v3.6c0,0,0.5,0.2,0.6,0.2h12.2v7.2H198l-0.3,0.3V150h-9.3v-31.3h24V118.6z"
					/>
			</g>
			<g>
				<g>
					<rect x="220.3" y="127.2" class="st0" width="8.6" height="22.8"/>
				</g>
				<g>
					<path class="st0" d="M228.9,118.6v5.7l-0.3,0.3h-7.9l-0.3-0.3v-5.7H228.9z"/>
				</g>
			</g>
			<g>
				<g>
					<path class="st0" d="M256.8,118.6c3.8,0.4,7.3,3.2,8.6,6.7c1.9,5.3,0.2,11.5-5.2,13.8c-1.2,0.5-3.8,1.3-5,1.3h-7.1v9.2
						l-0.3,0.3h-9.2v-31.3C238.6,118.6,256.8,118.6,256.8,118.6z M254.5,126.5c-1.9-0.3-4.4,0.2-6.4,0v6.5h6.4c0.5,0,1.9-1,2.2-1.5
						c0.6-0.9,0.7-3.2-0.1-4C256.4,127.2,254.9,126.6,254.5,126.5z"/>
				</g>
			</g>
		</g>
		<g>
			<g>
				<path class="st0" d="M99.2,198.3v3.4c0,0.1-0.5,0.8-0.7,0.9c-1.5,1.1-6.6,3.3-7.1,5c-0.2,0.7-0.1,1.5-0.3,2.2
					c-0.1,0.6,1,0.3,1.5,0.4c0.2,0,0.5,0.2,0.7,0.2c0.5,0,5.2-0.1,5.2,0.2v3.3l-17.7-0.7c0-0.8-0.1-1.6,0-2.4
					c0.2-2.6,0.2-5.8,0.8-8.3c0.3-1.1,0.6-1.9,1.6-2.6c2.4-1.7,6.7-0.8,7.5,2.2c0.1,0.5,0,1.1,0.2,1.4c0.5,0.8,0.6-0.1,0.8-0.4
					c1.1-1.3,2.6-2,4-2.9L99.2,198.3z M88.6,209.9c-0.3-2.3,1.6-7.6-2.2-7.4c-2.5,0.1-2.1,1.9-2.2,3.6c-0.1,1.1-0.4,2.3-0.2,3.4
					c0,0.1,0.6,0.4,0.6,0.4H88.6z"/>
			</g>
		</g>
		<g>
			<g>
				<path class="st0" d="M273.2,88.6c-0.3,0.3-1.6,1.1-2,1.2c-0.6,0.1-2.8,0-2.9,0c-0.2,0.2,1.1,1.8,1.2,2.2c1,2.1,1.1,4.9,1.8,7.1
					c-0.2,0.2-1.7-0.7-2.1-0.8c-0.5-0.2-1.4,0-1.7-0.6c-0.5-0.7-1.1-4.2-1.4-5.3c-0.2-0.8-0.8-2.7-1.3-3.2c-0.4-0.3-2.5-1.3-2.9-0.8
					l-2.2,6.4c-0.4,0.3-3.2-0.6-3.3-1l5.6-16.4c0.3-0.4,3.7,1.1,4.3,1.3c3,1,8.1,1.9,8.2,6C274.7,85.8,273.8,87.9,273.2,88.6z
					 M263,85.7c2,0.3,4.3,1.9,6.4,1.6c1.8-0.3,2.2-3.3,0.5-4.2c-0.5-0.3-5.3-2-5.5-1.8L263,85.7z"/>
			</g>
		</g>
		<g>
			<g>
				<path class="st0" d="M244.6,221.8c12.5,12.5,12,37.7-4.4,46.7c-8.5,4.6-22,5.1-30.7,1.2c-16.9-7.5-19.6-29.3-10-43.8
					c1.6-2.4,5.6-7,8.5-7.3c0.7-0.1,2.7-0.2,2.7,0.8c0,0.5-2.4,3.8-2.8,4.6c-5.5,9.6-8.4,19.8-2.9,30.2c5,9.5,13,10.9,23.1,10.2
					c9.4-0.7,15.2-8.3,17.2-17c1.6-6.9-1-15.2-4.3-21.3c-1-1.9-2.5-3.7-3.5-5.6c-1.1-2.1,0.3-2.1,2.1-1.9
					C241.1,218.7,243.4,220.6,244.6,221.8z M198.9,231.7c0.1,0.1,2.1,1,2.2,0.9c0.3-0.1,1-2.4,0.7-2.8c-0.1-0.1-1.8-1.2-1.9-1.2
					C199.7,228.8,198.8,231.6,198.9,231.7z M248.4,231.7c0.1-0.1-0.8-2.9-1-3c-0.1,0-1.8,1-1.9,1.2c-0.3,0.4,0.4,2.7,0.7,2.8
					C246.3,232.7,248.3,231.8,248.4,231.7z M199.4,244c0.1-0.1-0.6-1.9-0.6-2.3c-0.1-0.4,0.1-1.1-0.3-1.4c-0.5-0.3-2.3,0-3-0.1
					c0.2,0.6,0.4,3.4,0.7,3.6C196.3,244.1,199.2,244.1,199.4,244z M251.9,240.3c-0.1-0.1-2.8,0-3,0.1c-0.4,0.3-0.5,3-0.9,3.6
					c0.7-0.1,3.3,0.3,3.5-0.4C251.2,243.1,252,240.5,251.9,240.3z M202.4,257c0.3-0.3-1.7-3.4-2-3.5c-0.2-0.1-2.1,0.3-2.5,0.5
					c-0.2,0.1-0.5,0.1-0.6,0.3c-0.1,0.3,1.8,3.3,2,3.3c0.6,0.2,1.7-0.5,2.4-0.6C201.9,257,202.3,257.1,202.4,257z M246.8,253.6
					l-2.1,3.1c0.2,0.3,0.3,0.3,0.6,0.3c0.5,0.2,2.4,0.8,2.8,0.7c0.3-0.4,2-3.2,2-3.3c0-0.2-0.4-0.3-0.6-0.3
					C249,253.9,246.9,253.5,246.8,253.6z"/>
			</g>
			<g>
				<path class="st0" d="M210.2,161.9c0.1,0.1,0.2,0.4,0.2,0.5c0,0.7-1.9,3.1-2.4,4c-5.3,9-8.6,18.6-4.3,28.8
					c3.1,7.4,8.5,11.8,16.7,12.1c5.5,0.3,10.9,0.5,15.8-2.8c4.5-3,7.3-8.3,8.6-13.4c2.4-9.7-2.5-20.2-7.9-28.1
					c-0.7-1.9,2.3-1.4,3.4-1.1c2.7,0.8,6.3,5.1,7.8,7.5c9.5,14.7,6.1,36.9-11.2,43.7c-7.4,2.9-18.9,2.9-26.4,0.1
					c-17.1-6.4-20.8-28.1-12.1-42.8c1.9-3.3,6.1-8.6,10.1-8.9C209,161.6,209.9,161.6,210.2,161.9z M201.2,175.8
					c0.1-0.1,0.7-2.4,0.7-2.6c-0.1-0.3-2-1.4-2.3-1.1c-0.1,0.1-0.8,2.6-0.7,2.7C199,175,201,176,201.2,175.8z M248.4,174.8
					c0.1-0.1-0.6-1.9-0.7-2.2c-0.5-1.1-1.2-0.3-1.9,0.2c-0.2,0.1-0.6,0.2-0.6,0.2c-0.1,0.1,0.6,2.1,0.7,2.4c0.1,0.2,0.2,0.6,0.3,0.6
					s1-0.7,1.3-0.8C247.7,175,248.3,174.9,248.4,174.8z M195.9,187.1h3.3c0-0.5-0.6-3.3-0.7-3.5c-0.1-0.1-2.9-0.3-3-0.2
					C195.2,183.6,196,186.6,195.9,187.1z M247.9,187.1c0.1,0.1,2.8-0.1,3.3,0c0-0.6,0.8-3.6,0.7-3.7c-0.2-0.2-3,0.2-3.1,0.5
					C248.6,184,247.8,187,247.9,187.1z M200.5,196.7c-0.3-0.2-3.1,0.5-3.2,0.8c-0.1,0.6,1.5,2.5,1.7,3.3c0.6,0.6,2.6-0.8,3.4-0.7
					c0.1-0.1-0.3-0.9-0.4-1.1C201.8,198.7,200.6,196.8,200.5,196.7z M250,197.4c-0.1-0.1-2.9-0.8-3.1-0.7c-0.2,0.1-2.5,3.3-2.2,3.5
					c0.7-0.1,2.9,1,3.3,0.8C248.1,200.9,250.2,197.5,250,197.4z"/>
			</g>
			<g>
				<path class="st0" d="M249,269.2c4.1,4.3,8.1,8.7,12.3,12.9c3.6,3.7,7.3,7.4,10.9,11.1l15.6-15.1l8.2,7.7l-32.6,32.3
					c-0.3,0.1-1.4-1.2-1.7-1.5c-1.5-1.5-3.2-2.9-4.7-4.4c-0.4-0.3-1.7-1.6-1.8-1.9c-0.2-0.7,0.3-0.5,0.7-0.9c2.6-2.3,5.2-5,7.7-7.4
					c2.1-2.1,4.2-4.2,6.2-6.3v-0.4l-26.1-27.1v-0.5c0.4-0.2,2-1.9,2.1-1.9c0.2,0,2,2,2.3,2.3C248.4,268.5,248.7,268.9,249,269.2z"/>
			</g>
			<g>
				<path class="st0" d="M193.9,279.3c-0.8,0.8-1.6,1.6-2.4,2.4c-4.4,4.5-8.9,9-13.1,13.6l15.3,15.1l-8,8l-33.1-31.9l8.2-8
					l15.3,14.6l25.8-26.7l2.4,2c-3.4,3.5-6.8,6.9-10.1,10.3C194.2,278.8,194.1,279.1,193.9,279.3z"/>
			</g>
			<g>
				<path class="st0" d="M193.5,236.4c-0.3,2.6-0.9,5.2-0.9,7.9c-1-0.1-2.1,0.1-3.1,0c-14.2-0.9-23.4-9.4-25.9-23.4
					c-1.3-7.5,1-16.9,5.4-23.2c1.8-2.7,5.4-6.7,8.7-7.1c1-0.1,2.4-0.2,2.2,1.2c-2.9,4.5-5.8,9.3-7.3,14.5c-3,10.4-0.2,22.8,9.8,28.2
					c0.9,0.5,4.8,1.8,5.6,1.8h5.5V236.4z M168.2,203.9c0.1,0.1,2.1,1,2.2,0.9c0.3-0.1,1-2.4,0.9-2.6c-0.1-0.2-0.5-0.5-0.7-0.7
					c-0.2-0.1-1.4-0.8-1.5-0.7C169.2,201.4,168,203.6,168.2,203.9z M168.7,216.2c-0.3-0.7-0.5-2.8-0.8-3.3c-0.3-0.4-3-0.6-3.1-0.5
					s0.8,3.1,0.7,3.7h3.2V216.2z M171.9,229.2c0.1-0.1-0.6-1.2-0.7-1.5c-0.2-0.4-1.1-1.8-1.3-1.9c-0.5-0.3-3.3,0.4-3.3,0.7
					c0,0.2,1.9,3.4,2.1,3.5c0.2,0.1,2.1-0.6,2.5-0.8C171.4,229.2,171.9,229.2,171.9,229.2z"/>
			</g>
			<g>
				<path class="st0" d="M259.4,235.4c10.7-1,17.6-13.5,16.8-23.3c-0.4-4.8-2.7-11-5-15.2c-1-1.8-2.8-4-3.5-5.7
					c-0.7-1.6,0.9-1.6,2.1-1.4c3.8,0.4,8.4,6.6,10.2,9.8c10.2,18.8,0.8,42.4-21.8,43.8c-0.5,0-3.5,0.1-3.6,0s-0.2-2.5-0.2-2.9
					c-0.2-1.7-0.8-3.3-0.9-5C255.4,235.3,257.5,235.6,259.4,235.4z M279,202.9c0.2-0.3-0.8-3-1-3c-0.1,0-1.8,1-1.9,1.1
					c-0.2,0.3,0.4,2.6,0.6,2.8C277,204.2,278.5,202.9,279,202.9z M282.5,211.5c-0.1-0.1-2.8,0.2-3,0.3c-0.3,0.2-0.9,3.2-0.7,3.4
					c0.1,0.1,2.9,0,3-0.1C282,215,282.6,211.7,282.5,211.5z M275.5,228.2c0.1,0.1,3,0.7,3.1,0.7c0.3-0.1,2-3.2,2-3.3
					c0-0.2-0.4-0.3-0.6-0.3c-0.4-0.1-2.3-0.5-2.5-0.5C277.3,224.9,275.2,228,275.5,228.2z"/>
			</g>
			<g>
				<path class="st0" d="M222.8,216.4c0.4,0.4-0.5,5.6-0.8,6.6c-1.9,8.2-6.5,15.1-14.3,18.6c-0.9,0.4-3.7,1.5-4.5,1.5
					c-0.4,0-0.3,0-0.4-0.3c0-0.5,0-1.1,0-1.6c0.1-1.2,1-6.1,1.5-6.9c0.3-0.4,1.3-0.7,1.7-1.1c3.5-2.6,6.2-6.9,7.6-11
					c0.7-2,1.2-4.4,1.3-6.5l2.7,0.7C218.3,216.5,222.6,216.2,222.8,216.4z M217.5,230.1c0.1-0.7,2-3.1,1.9-3.6
					c-0.1-0.3-2.7-0.9-3.1-0.8c-0.2,0-1.8,2.5-1.9,2.8c-0.1,0.2-0.2,0.4-0.1,0.7L217.5,230.1z"/>
			</g>
			<g>
				<path class="st0" d="M244.4,242.2c-0.5,0.5-5.8-2-6.7-2.5c-8.6-4.9-12.5-13.7-13.3-23.3c1.3-0.1,2.8,0.1,4.1,0
					c0.7,0,3.4-0.7,3.7-0.7c0.1,0,0.2,0.1,0.3,0.2c0.4,2.8,1.1,5.6,2.3,8.1c1.4,3,3.3,5.5,5.8,7.7c1.7,1.4,1.9,1,2.6,3.4
					C243.8,237.4,244.2,239.8,244.4,242.2z M233,228.2c0.3-0.2-1.8-3.4-2-3.5s-2.1,0.3-2.5,0.5c-0.2,0.1-0.5,0.1-0.6,0.3
					c0,0.2,1.8,3.3,2,3.3c0.6,0.2,1.7-0.5,2.4-0.6C232.5,228.2,233,228.3,233,228.2z"/>
			</g>
			<g>
				<path class="st0" d="M231.6,236.5c0.1,0.1,0.1,0.2,0.1,0.3c0.3,0.3,1.6,1.1,1.5,1.6c-0.7,1.1-7.1,6.9-6.9,7.4
					c0.1,0.2,2.9,2.9,3.4,3.4c2.1,2.3,4.2,4.6,6.5,6.7l1.9,2.3c-0.4,0.4-1.9,2.2-2.4,1.8l-11.5-12l-11.6,11.8
					c-0.3,0.2-0.2,0.9-0.7,0.7c-0.1,0-1.3-1.2-1.6-1.4c-0.5-0.4-0.8-0.1-0.3-0.8c2.9-4.1,8.1-7.8,11.3-11.7c0.3-0.3,0.7-0.8,0.6-1.2
					l-6.7-7c0.4-0.5,1-0.9,1.4-1.4c0.4-0.4,0.1-0.8,1.1-0.5l6.1,6.6c0.1,0.1,0.5,0.3,0.6,0.3c0.5,0,5.9-6.3,6.8-7.1
					C231.1,236.2,231.4,236.3,231.6,236.5z"/>
			</g>
			<g>
				<path class="st0" d="M269.7,196.4c0,0.9,1.4,2.3,1.1,3l-23.4,24.1c0-0.5-1.9-2.2-1.9-2.4s2-1.9,2.2-2.4
					c6.5-6.5,12.7-13.1,19-19.7c0.6-0.7,1.6-1.8,2.3-2.3C269.4,196.5,269.4,196.4,269.7,196.4z"/>
			</g>
			<g>
				<path class="st0" d="M179.9,197.8c6.4,6.8,13.1,13.5,19.6,20.3c0.4,0.4,2.7,2.5,2.7,2.7c0,0.1-1.8,1.7-2,2.2l-23.3-24l-0.1-0.1
					c0.5-0.3,1.3-2.7,1.7-2.7C178.8,196.2,179.7,197.5,179.9,197.8z"/>
			</g>
			<g>
				<path class="st0" d="M225.8,206.4c-0.3-0.2,2.1-5.7,2.5-6.4c1.6-3,5.5-8.3,8.6-9.8c1-0.5,4.8-1.2,4.2,0.7
					c-2.4,3.2-4.3,6.7-5.9,10.4c-0.3,0.7-0.7,2.5-1.2,3c-0.3,0.3-2.7,1.2-3.3,1.3C230.1,205.8,226.1,206.6,225.8,206.4z
					 M229.6,202.9c0.1,0.1,2.1,1,2.2,0.9c0.4-0.1,0.9-2.5,0.7-2.8c-0.1-0.1-1.9-1.2-2-1.2c-0.1,0.2-0.8,2.2-0.9,2.5
					C229.6,202.6,229.5,202.9,229.6,202.9z"/>
			</g>
			<g>
				<path class="st0" d="M207,190.7c0.5-0.1,1.1-0.1,1.6,0c4,0.5,8.6,6.7,10.4,10c0.6,1.1,2,4.1,2.2,5.3c0,0.3-0.1,0.3-0.3,0.5
					c-1.3-0.3-2.5-0.3-3.8-0.6c-0.7-0.2-4-1.3-4.3-1.8c-0.4-0.5-0.6-1.9-0.9-2.6c-0.5-1.1-1.1-2.4-1.6-3.5c-1-1.9-2.9-4.2-3.8-6
					C206,191.3,206,190.9,207,190.7z M215.4,204.8c0.1,0.1,2.2-0.8,2.3-1.1c0.1-0.4-0.7-2.9-1-2.9c-0.1,0-1.9,1.2-2,1.3
					C214.7,202.3,215.3,204.7,215.4,204.8z"/>
			</g>
			<g>
				<path class="st0" d="M207.6,226.6c0.3-0.1,1.7,1.4,1.7,1.5s-1.2,1.6-1.4,1.8c-0.7,0.8-1.6-0.1-1.6-0.7
					C206.3,229.1,207.5,226.7,207.6,226.6z"/>
			</g>
			<g>
				<path class="st0" d="M240,227.1c0.2,0.9,0.9,1.8,1.2,2.6c0.1,0.3,0.3,0.5-0.2,0.6c-0.2,0.1-2.2-1.8-2.2-2
					C238.8,228,239.7,227.3,240,227.1z"/>
			</g>
		</g>
		<g>
			<g>
				<path class="st0" d="M245.8,350.6c0.3,0.3,6.5-1.1,7.4-0.9c0.3,1,0.1,2.1,0.5,3.1l-13,2c-0.1-2.8,1.3-5.1,2.8-7.3
					c1.6-2.3,5.8-6.1,4-9.2c-1.2-2-4.5-1.3-4.9,0.8c-0.1,0.4,0,1.4,0,1.5c-0.2,0.2-2.7,0.3-3.1,0.2c-0.9-0.1-0.4-0.6-0.4-1.1
					c0.2-3,1.7-4.6,4.7-5.3c5.8-1.5,9.6,3.2,7,8.6c-1.2,2.5-3.5,4.4-4.7,6.7C245.9,350,245.7,350.5,245.8,350.6z"/>
			</g>
			<g>
				<path class="st0" d="M201.7,354.6c-0.1,0.1-2.9-0.6-3.5-0.5l1.9-14.2l-5,2.1c-0.2-0.1-0.1-0.6-0.1-0.8c0-0.4,0.3-2.3,0.3-2.4
					c0.1-0.2,2.1-0.6,2.6-0.9c0.5-0.2,1.8-1,2.1-1.3c0.4-0.3,1.4-2,1.5-2c0.3,0,0.6,0.2,0.9,0.2c0.7,0.1,1.9-0.3,2,0.6L201.7,354.6z
					"/>
			</g>
			<g>
				<g>
					<path class="st0" d="M234.8,343.6c-0.2,0.3-1,0.8-1.4,1c-0.8,0.4,0.4,0.5,0.7,0.7c3.1,1.4,3.4,6.1,1.5,8.5
						c-2.7,3.3-9.6,2.8-11.2-1.3c-1-2.7-0.2-6,2.6-7.1l-2.1-1.7c-2.1-2.5-0.6-6.2,2.3-7.2c1.6-0.6,3.2-0.7,4.9-0.2
						C235.4,337.1,236.8,340.7,234.8,343.6z M229.5,338.6c-2.8,0.6-2.7,4.7,0,5.1C233.8,344.2,232.9,337.9,229.5,338.6z M230,346.5
						c-3.9,0.6-2.7,7.2,0.9,6.7C234.4,352.7,234,345.9,230,346.5z"/>
				</g>
			</g>
			<g>
				<g>
					<path class="st0" d="M207.7,350.9c0.1-0.1,1.8,0,2.2,0c0.3,0,1.1-0.4,1.3-0.2c0.2,0.2,0.1,1.5,1.1,2.1c1.4,0.8,2.9,0.1,3.7-1.1
						c0.3-0.5,0.7-1.9,0.8-2.5c0.4-2.9-0.7-0.5-2.2-0.3c-2.4,0.3-4.7-0.6-5.9-2.7c-1.6-2.9-1-7.3,1.9-9.2c3.3-2.1,7.7-0.9,9.3,2.7
						c1.7,3.8,1.2,12.2-2.3,15c-2.8,2.2-7.9,1.8-9.4-1.8C208.1,352.5,207.6,350.9,207.7,350.9z M213.5,338.8c-1.2,0.2-1.9,1.5-2,2.6
						c-0.2,2.5,0.2,5.3,3.4,4.8C217.8,345.7,217.6,338.1,213.5,338.8z"/>
				</g>
			</g>
		</g>
		<g>
			<g>
				<path class="st0" d="M110.1,131.7c4.8-0.4,11.2,4.4,10.7,9.6c-0.4,4.1-3.8,8.1-8,8.5c-3.7,0.3-8.7-3.2-10-6.7
					C101,138.2,105,132.2,110.1,131.7z M110.1,135c-3.3,0.2-5.6,3.9-4.2,6.9c0.8,1.9,4,4.1,6.1,4.4c3.8,0.5,6.7-3.1,5.3-6.7
					C116.5,137.4,112.4,134.8,110.1,135z"/>
			</g>
		</g>
	</g>
</g>
</svg>
