<?xml version="1.0" encoding="UTF-8"?>
<svg xmlns="http://www.w3.org/2000/svg" xmlns:xlink="http://www.w3.org/1999/xlink" id="Layer_1" version="1.1" viewBox="0 0 340.2 340.2">
  <defs>
    <style>
      .st0 {
        fill: none;
      }

      .st1 {
        clip-path: url(#clippath-1);
      }

      .st2 {
        fill: #fff;
      }

      .st3 {
        clip-path: url(#clippath);
      }
    </style>
    <clipPath id="clippath">
      <rect class="st0" x="312.4" y="163.5" width="13.1" height="13.1"></rect>
    </clipPath>
    <clipPath id="clippath-1">
      <rect class="st0" x="14.9" y="163.5" width="13.1" height="13.1"></rect>
    </clipPath>
  </defs>
  <polygon class="st2" points="231 257.5 238.4 248 85.4 94.9 89.1 91.1 241.8 243.8 251.7 231.2 254.8 237.9 237.7 261.9 231 257.5"></polygon>
  <path class="st2" d="M89.1,91.9l152.7,152.7,9.8-12.4,2.6,5.6-16.6,23.3-5.8-3.7,7.4-9.3L86.2,94.9l3-3M89.1,90.4l-.8.8-3,3-.8.8.8.8,152.3,152.3-6.7,8.5-.8,1,1,.7,5.8,3.7.9.6.7-.9,16.6-23.3.3-.6-.3-.6-2.6-5.6-.8-1.5-1.1,1.5-9,11.4L89.9,91.1l-.8-.8h0Z"></path>
  <path class="st2" d="M108,112.3l-1.8,1.8c-1.7,1.7-4.3,1.7-6,0l-15-15,7.8-7.8,15,15c1.7,1.6,1.7,4.3,0,6Z"></path>
  <path class="st2" d="M84.4,100.9l-.6-.6c-1.4-1.4-1.4-3.7,0-5.1l5.3-5.3c1.4-1.4,3.7-1.4,5.1,0l.6.6c1.4,1.4,1.4,3.7,0,5.1l-5.3,5.3c-1.4,1.5-3.7,1.5-5.1,0Z"></path>
  <path class="st2" d="M93.6,136.5c-.6,0-1,0-1.7-.2-6.9-2-5.6-9.4-5.5-9.5h0l6.6-25.7.6,2.2c0,.1,4.1,16.4,5,20.9.2,1.7.7,8.7-2.4,11.4-.8.7-1.6,1-2.6,1ZM87.6,126.9c0,.5-1.1,6.5,4.8,8.2,1.4.5,2.4.2,3.2-.5,2.4-2.2,2.3-8.3,1.9-10.3-.7-3.5-3.3-14.1-4.4-18.6l-5.5,21.4h0Z"></path>
  <polygon class="st2" points="84.9 237.9 88.1 231.2 98 243.8 250.6 91.1 254.4 94.9 101.3 248 108.8 257.5 101.9 261.9 84.9 237.9"></polygon>
  <path class="st2" d="M250.6,91.9l3,3L100.6,247.9l7.4,9.3-5.8,3.7-16.6-23.3,2.6-5.6,9.8,12.4L250.6,91.9M250.6,90.4l-.8.8L98,242.9l-9-11.4-1.1-1.5-.8,1.6-2.6,5.6-.3.6.3.6,16.6,23.3.7.9.9-.6,5.8-3.7,1-.7-.8-1-6.7-8.5L254.3,95.7l.8-.8-.8-.8-3-3-.7-.8h0Z"></path>
  <path class="st2" d="M231.7,112.3l1.8,1.8c1.7,1.7,4.3,1.7,6,0l15-15-7.8-7.8-15,15c-1.6,1.6-1.6,4.3,0,6h0Z"></path>
  <path class="st2" d="M255.3,100.9l.6-.6c1.4-1.4,1.4-3.7,0-5.1l-5.3-5.3c-1.4-1.4-3.7-1.4-5.1,0l-.6.6c-1.4,1.4-1.4,3.7,0,5.1l5.3,5.3c1.4,1.5,3.6,1.5,5.1,0Z"></path>
  <path class="st2" d="M246,136.5c-1,0-1.9-.3-2.6-1-3.1-2.6-2.6-9.7-2.4-11.4.9-4.7,5-20.8,5-20.9l.6-2.2,6.6,25.7s1.4,7.5-5.5,9.5c-.6.2-1.1.2-1.7.2h0ZM246.6,105.6c-1.1,4.5-3.7,15.1-4.4,18.7-.3,2-.5,8.2,1.9,10.3.8.7,1.9.9,3.2.5,5.8-1.7,4.8-7.7,4.8-8.2l-5.5-21.4Z"></path>
  <g>
    <path class="st2" d="M204.2,133.9s-2.3-3,2.6-6.1l2.6-1.9s2.7-1.5-.3-4.8l-4.8-5.6s-2.7-3.3-6,0c0,0-2.5,3-5.5,5.3-2.7,2.2-5.9,3.6-7.2,4.9-2.6,2.6-1,5-.3,6,.7,1,1.8,3.4,7.7,11.1s15,25.7,13.4,36.2c-1.7,10.6-5.7,18.1-13.3,22.6-7.6,4.4-14.5,6.4-22.4,6h-.1c-7.8.3-14.9-1.6-22.4-6-7.6-4.4-11.6-12-13.3-22.6-1.7-10.6,7.4-28.5,13.4-36.2,5.9-7.7,7-10.1,7.7-11.1.7-1,2.2-3.5-.3-6s-4.4-2.7-7.2-4.9c-3.1-2.4-5.5-5.3-5.5-5.3-3.4-3.3-6,0-6,0l-4.8,5.6c-3.1,3.3-.3,4.8-.3,4.8l2.6,1.9c4.9,3.2,2.6,6.1,2.6,6.1,0,0-22.9,25.7-15.8,51.9,3.5,12.8,8.5,19.2,15.4,24.9,7.4,6.1,16.2,11.4,33.7,12h.2c17.5-.8,26.4-5.9,33.7-12,6.9-5.7,11.9-12,15.4-24.9,6.9-26.1-15.9-51.9-15.9-51.9ZM135,145.7l4.1,2.8-5.5,8.1-4.1-2.8,5.5-8.1ZM125,168.4h5v9.8h-5v-9.8ZM132.7,199.3l-4.9-8.4,4.3-2.5,4.9,8.4-4.3,2.5ZM153.5,214.5l-8.7-4.2,2.2-4.4,8.7,4.2-2.2,4.4ZM187.7,214.5l-2.2-4.5,8.9-4.2,2.2,4.5-8.9,4.2ZM202.2,148.5l4.1-2.8,5.5,8.1-4.1,2.8-5.5-8.1ZM208.2,199.2l-4.1-2.8,5.5-8.1,4.1,2.8-5.5,8.1ZM216.3,178.2h-5v-9.8h5v9.8Z"></path>
    <path class="st2" d="M170.9,223.3h-.2c-17.9-.7-27-6.2-34.1-12.2-6.8-5.6-12-11.9-15.7-25.2-7.2-26.2,15.7-52.1,15.9-52.5h0s.6-.8.3-1.8c-.2-1.1-1.1-2.4-2.8-3.4l-2.6-1.9h0s-1.1-.6-1.4-1.9c-.2-1.1.3-2.4,1.6-3.7l4.8-5.6s1.2-1.5,3.2-1.7c1.2,0,2.5.5,3.7,1.6,0,0,2.4,3,5.5,5.3,1.4,1.1,2.8,2,4.2,2.8s2.4,1.5,3,2c1.4,1.4,2.5,3.6.5,6.7-.1.2-.2.5-.5.7-.8,1.4-2.5,4.1-7.3,10.5-6.5,8.3-14.9,25.8-13.3,35.8,1.8,11,5.9,18.1,13.1,22.2,7.4,4.4,14.4,6.2,22,5.9h.1c7.6.3,14.4-1.5,22-5.9,7.2-4.2,11.2-11.4,13.1-22.2,1.5-9.9-6.9-27.5-13.3-35.8-4.8-6.2-6.5-9.1-7.3-10.5-.2-.3-.3-.6-.5-.7-.7-1-2.5-3.7.5-6.7s1.8-1.4,3.2-2.2c1.2-.8,2.7-1.7,4.1-2.7,2.8-2.3,5.3-5.2,5.3-5.2,1.1-1.1,2.4-1.7,3.6-1.7,1.9,0,3.2,1.6,3.3,1.7l4.8,5.6c1.2,1.2,1.7,2.5,1.6,3.6-.2,1.4-1.4,1.9-1.4,1.9l-2.5,1.9c-1.7,1.1-2.6,2.3-2.8,3.4-.2,1,.3,1.8.3,1.9.8.9,22.8,26.6,16,52.4-3.6,13.2-8.9,19.7-15.7,25.2-7,5.8-16,11.4-34.1,12.2h-.3ZM140.1,114.5h-.1c-1.4,0-2.3,1.2-2.4,1.2l-4.8,5.6c-1,1-1.4,2-1.2,2.7.1.8.8,1.1.8,1.1l2.7,1.9c1.9,1.2,3.1,2.7,3.3,4.2.2,1.6-.6,2.7-.6,2.7-.2.3-22.7,25.8-15.7,51.5,3.5,13,8.6,19.2,15.2,24.5,8.1,6.7,16.8,11.2,33.4,11.9h0c17.8-.8,26.6-6.2,33.5-11.9,6.6-5.5,11.7-11.7,15.2-24.5,6.8-25.6-15.6-51.1-15.8-51.3h0s-.9-1.1-.6-2.7c.2-1.5,1.4-3,3.3-4.2l2.6-1.9s.8-.5.9-1.2c.1-.8-.3-1.7-1.2-2.7l-4.8-5.6s-1-1.2-2.5-1.2-1.8.3-2.7,1.2c0,0-2.5,3-5.5,5.3-1.4,1.1-2.8,2-4.2,2.8-1.2.8-2.4,1.5-3,2-2.3,2.3-1,4.2-.2,5.3.1.2.2.5.5.8.8,1.4,2.5,4.1,7.3,10.3,5.6,7.3,15.2,25.4,13.5,36.7-1.8,11.2-6.1,18.5-13.5,23.1-7.8,4.5-14.8,6.5-22.7,6.1h0c-7.8.3-15-1.6-22.7-6.1-7.4-4.3-11.7-11.6-13.5-22.9-1.7-10.3,6.9-28.3,13.5-36.7,4.8-6.2,6.5-9,7.3-10.3.2-.3.3-.6.5-.8.9-1.2,1.8-3.3-.2-5.3s-1.6-1.1-2.8-1.9c-1.4-.8-2.8-1.8-4.3-3-3.1-2.4-5.5-5.3-5.6-5.5-.8-.8-1.7-1.2-2.6-1.2h-.2ZM153.7,215.3l-9.8-4.7,2.6-5.5,9.8,4.7-2.6,5.5ZM145.6,210.1l7.7,3.7,1.7-3.4-7.7-3.7-1.7,3.4ZM187.5,215.3l-2.6-5.6,9.9-4.7,2.6,5.6-9.9,4.7ZM186.3,210.2l1.7,3.5,7.8-3.7-1.7-3.5-7.8,3.7ZM132.5,200.1l-5.5-9.4,5.3-3.1,5.5,9.4-5.3,3.1ZM128.6,191.1l4.3,7.4,3.3-1.9-4.3-7.4-3.3,1.9ZM208.3,200l-5-3.5,6.1-9,5,3.5-6.1,9ZM204.9,196.2l3.2,2.2,4.8-7.2-3.2-2.2-4.8,7.2ZM216.9,178.7h-6.1v-10.9h6.1v10.9ZM211.9,177.6h3.9v-8.6h-3.9v8.6ZM130.6,178.7h-6.1v-10.9h6.1v10.9ZM125.6,177.6h3.9v-8.6h-3.9v8.6ZM207.6,157.4l-6.1-9,5-3.5,6.1,9-5,3.5ZM203,148.6l4.8,7.2,3.2-2.2-4.8-7.2-3.2,2.2ZM133.7,157.4l-5-3.5,6.1-9,5,3.5-6.1,9ZM130.3,153.6l3.2,2.2,4.8-7.2-3.2-2.2-4.8,7.2Z"></path>
  </g>
  <path class="st2" d="M204.1,67.2c-2.8-3.5-6.6-5.1-12-5.1h-1.6c-5.5.2-9.4,1.9-11.5,3.1v-3.2c0-.1.2-1.4-.7-2.4-.7-.7-1.6-1-2.7-1h-10c-1.2,0-2.2.3-2.7,1-.8.9-.7,2.3-.7,2.3v3.3c-1.9-1.1-6-2.8-11.5-3.1h-1.6c-5.5,0-9.2,1.6-12,5.1-5,6.1-4.1,12.5-3.5,16.4,1,6.9,7.7,13.9,9.8,15.9s1.6,1.9,2,4.9c.2,4.2,4.9,8.6,13.2,8.6h24.1c6.8,0,13-4,13.2-8.6,0,0,0-2.8,2-4.9l.3-.3c5.6-5.7,8.7-10.9,9.4-15.6.6-3.7,1.5-10.2-3.5-16.4ZM170.4,59.5c2.2,0,4,1.8,4,4h-8c0-2.2,1.8-4,4-4ZM174.4,64.9c0,2.2-1.8,4-4,4s-4-1.8-4-4h8ZM149.1,88.8c0-5.2,4.5-2.5,4.5-2.5-3.4-4-1-6.2-1-6.2,3.3.2,3,5.5,3,5.5.3-1,2.2-3.9,4.1-1.5,1.9,2.4-.5,5.5-.5,5.5v-1.5c-.2-1.5-2-1-2.3,0-.3,1.7,1.8,3.1,1.8,3.1l-5.2,1.4s.7-2-.2-3.3-2.4,0-1.7.8,1.5,1.5,1.5,1.5c-4,0-4-2.7-4-2.7h0ZM144.3,83.1c-.2-2.6-2.4-8.6,8.3-9.4s13.5,3.5,11.2,3.1c-2.2-.3-3.6-1.1-8.7-.1-5.2,1.1-10.6,9.2-10.8,6.5ZM171.1,109.3c-10.9,0-19.8-1.5-19.8-3.3s8.9-3.3,19.8-3.3,19.8,1.5,19.8,3.3-8.9,3.3-19.8,3.3ZM191.6,103.9s-20.6-7.5-40.4,0v-6s20.4-7.6,40.4,0v6ZM188.5,73.7c10.7.8,8.5,6.8,8.3,9.4-.2,2.7-5.6-5.3-10.8-6.5-5.1-1-6.6-.2-8.7.1-2.3.5.6-3.9,11.2-3.1ZM187.7,91.5s.8-.7,1.5-1.5c.7-.8-.8-2-1.7-.8-.9,1.2-.2,3.3-.2,3.3l-5.2-1.4s2.2-1.4,1.8-3.1c-.2-1.1-2-1.6-2.2,0v1.5c-.1,0-2.5-3.1-.6-5.5,1.9-2.4,3.7.5,4.1,1.5,0,0-.3-5.2,3-5.5,0,0,2.4,2.3-1,6.2,0,0,4.7-2.7,4.5,2.5,0,0,0,2.7-4,2.7h0ZM195.4,96.9l-2.3-3c2.8-1.6,7.4-8.9,8.5-13.3-.9-.3-1.5-1-1.5-1.9s.6-1.5,1.2-1.8c-.2-.7-.7-1.4-1.1-2-.8.2-1.6,0-2.2-.6-.6-.7-.7-1.5-.3-2.3-.7-.7-1.5-1.2-2.3-1.8-.6.5-1.4.6-2,.3-.8-.3-1.2-1.1-1.1-1.9-.9-.2-2.2-.2-3.5-.1-.2.6-.8,1-1.5,1.2-.9.2-1.7-.2-2-.8-1.1.2-2.3.5-3.4.7-.1.6-.6,1-1.2,1.1-.6.1-1.1,0-1.5-.5-1.2.3-2.3.7-3,1-1.6.7-2.5,1.9-2.7,3.9-.2,1.9-.9,8.5.2,10.8s3.2,2.2,3.2,4.5h-12.5c0-2.4,2-2.3,3.2-4.5s.5-8.9.2-10.8-1.1-3.2-2.7-3.9c-.7-.3-1.7-.7-3-1-.3.3-.9.6-1.6.5-.7-.1-1.1-.7-1.2-1.2-1.1-.2-2.3-.5-3.4-.7-.3.7-1.2,1.1-2.2.9-.8-.1-1.4-.7-1.5-1.4-1.4,0-2.7,0-3.6.2,0,.8-.5,1.6-1.1,1.9-.7.2-1.4.1-1.9-.3-.8.5-1.5,1-2.2,1.7.3.8.2,1.7-.3,2.3-.6.7-1.5.8-2.3.6-.5.7-.9,1.4-1.1,2.2.8.3,1.2,1,1.2,1.8s-.6,1.6-1.5,1.9c1.1,4.4,5.7,11.7,8.5,13.3l-2.3,3s-9.4-10.6-9.4-17.7,5.8-13,11.4-13.9c5.6-.9,16.8,2.2,19.2,3.9s3.7,3.1,3.7,3.1c0,0,1.4-1.4,3.7-3.1s13.6-4.8,19.2-3.9c5.6.9,11.4,6.6,11.4,13.9s-9.4,17.7-9.4,17.7h0Z"></path>
  <path class="st2" d="M72.2,194.2c1.6-.1,2.6-.5,3.2-1.1s.9-1.5.9-2.6v-35c-.8,0-1.5.1-2.3.1s-1.5.1-2.3.1v-2.7c2.2,0,4.4-.1,6.7-.1h7c4,0,7.4.5,10.1,1.4s4.8,2.3,6.2,4c1.5,1.8,2.3,4,2.4,6.6,0,1.6,0,3.3-.7,5s-1.6,3.4-3.1,5-3.6,2.8-6.4,3.7-6.2,1.5-10.5,1.5h-.9c-.5,0-.9,0-1.2-.1v13.9c.7,0,1.2-.1,1.9-.1s1.2-.1,1.9-.1,1.2,0,1.9-.1v2.7h-15.3v-1.9h.2ZM81.8,177.4c.8.1,1.5.1,2,.1h2c2.4,0,4.5-.5,6.5-1.4s3.5-2.3,4.7-4,1.7-3.7,1.7-6.1-.3-3.6-.9-5-1.5-2.5-2.6-3.3-2.5-1.5-4.1-1.8-3.3-.6-5.2-.6-2.4.3-3,.9-.9,1.5-.9,2.6v18.5h-.2Z"></path>
  <path class="st2" d="M237.2,198.8c1.6-.1,2.6-.5,3.2-1.1s.9-1.5.9-2.6c.1-1.1.1-2.4.1-3.9v-26.7c0-.8,0-1.6.1-2.4,0-.8.1-1.5.1-2-.8,0-1.5.1-2.3.1s-1.5.1-2.3.1v-2.7c2.2,0,4.4-.1,6.7-.1h7c4,0,7.4.5,10.1,1.4s4.8,2.3,6.2,4c1.5,1.8,2.3,4,2.4,6.6.1,1.6-.1,3.3-.7,5s-1.6,3.4-3.1,5-3.6,2.8-6.4,3.7c-2.7.9-6.2,1.5-10.5,1.5h-.9c-.5,0-.9,0-1.2-.1v11.8c0,.8-.1,1.5-.1,2,.7,0,1.2-.1,1.9-.1s1.2-.1,1.9-.1,1.2,0,1.9-.1v2.7h-15.1v-1.9h-.2,0ZM246.9,182c.8.1,1.5.1,2,.1h2c2.4,0,4.5-.5,6.5-1.4s3.5-2.3,4.7-4,1.7-3.7,1.7-6.1-.3-3.6-.9-5-1.5-2.5-2.6-3.3-2.5-1.5-4.1-1.8c-1.6-.3-3.3-.6-5.2-.6s-2.4.3-3,.9-.9,1.5-.9,2.6c-.1,1.1-.1,2.4-.1,3.9v14.7h-.1Z"></path>
  <path class="st2" d="M143.9,268.1v-1.7c.3,0,.7-.1.9-.1.2-.1.5-.2.6-.6s.2-.8.2-1.5v-10.1l-2.7,1.6-.9-1.5,5.8-4.2h1.5v15.1c0,.5,0,.7-.1.9.2,0,.6,0,1-.1h.9v1.9h-7.2v.2Z"></path>
  <path class="st2" d="M162,268.6c-1.1,0-2-.1-2.6-.5-.7-.3-1.1-.7-1.5-1.2s-.5-1-.5-1.6.1-.9.5-1.2.7-.6,1.2-.6,1,.2,1.2.6c.2.3.3.7.3,1s0,.3-.1.6-.1.5-.2.6c.1.2.3.3.7.6.3.1.7.2,1,.2s.9-.2,1.2-.5.7-.6.9-1,.5-.9.7-1.5c.1-.6.2-1.1.3-1.7s.1-1.2,0-1.8c-.2.3-.7.7-1.2.9-.6.3-1.2.5-1.8.5-.9,0-1.7-.1-2.4-.3s-1.2-.7-1.7-1.2-.8-1.1-1-1.9-.3-1.5-.3-2.4.2-2.2.8-3c.5-.9,1.2-1.6,2.2-2,.9-.5,1.9-.8,3.2-.8s2,.2,2.8.7,1.4,1,1.9,1.8.8,1.7,1,2.7.3,2.2.3,3.4,0,1.6-.1,2.5-.3,1.8-.6,2.6c-.2.9-.7,1.7-1.1,2.4s-1.1,1.4-1.9,1.7c-1.1.3-2.2.6-3.3.6ZM162.7,259.7c.3,0,.7-.1,1-.2.3-.1.6-.3.9-.6.2-.2.5-.6.6-.8,0-.8,0-1.6-.1-2.3s-.2-1.4-.5-1.9-.5-1-.8-1.4-.7-.5-1.2-.5-.9.1-1.2.5c-.3.3-.6.8-.8,1.2-.1.6-.2,1-.2,1.7s0,.8.1,1.2c0,.5.1,1,.3,1.5.1.5.3.9.7,1.1s.8.3,1.2.3h0Z"></path>
  <path class="st2" d="M175.7,268.1v-1.7c.3,0,.7-.1.9-.1.2-.1.5-.2.6-.6s.2-.8.2-1.5v-10.1l-2.7,1.6-.9-1.5,5.8-4.2h1.5v15.1c0,.5,0,.7-.1.9.2,0,.6,0,1-.1h.9v1.9h-7.2v.2Z"></path>
  <path class="st2" d="M189.4,268.1v-1.7c.3,0,.7-.1.9-.1.2-.1.5-.2.6-.6s.2-.8.2-1.5v-10.1l-2.7,1.6-.9-1.5,5.8-4.2h1.5v15.1c0,.5,0,.7-.1.9.2,0,.6,0,1-.1h.9v1.9h-7.2v.2Z"></path>
  <polygon class="st2" points="169.2 59.3 169.2 55.8 165.6 55.8 165.6 53.2 169.2 53.2 169.2 49.6 171.8 49.6 171.8 53.2 175.4 53.2 175.4 55.8 171.8 55.8 171.8 59.3 169.2 59.3"></polygon>
  <polygon class="st2" points="89.8 234.4 86.5 239.2 85.5 237.8 88.2 232.2 89.8 234.4"></polygon>
  <polygon class="st2" points="108 257.3 102.2 261.1 101.3 260 106.8 255.9 108 257.3"></polygon>
  <polygon class="st2" points="110.9 237.6 100.6 247.9 98 244.6 108 234.6 110.9 237.6"></polygon>
  <polygon class="st2" points="249.8 234.4 253.3 239.2 254.2 237.8 251.6 232.2 249.8 234.4"></polygon>
  <polygon class="st2" points="231.8 257.3 237.6 261.1 238.4 260 232.9 255.9 231.8 257.3"></polygon>
  <polygon class="st2" points="228.8 237.6 239.2 247.9 241.8 244.6 231.8 234.6 228.8 237.6"></polygon>
  <path class="st2" d="M170.1,301.6c-72.6,0-131.5-59-131.5-131.5S97.5,38.6,170.1,38.6s131.5,59,131.5,131.5-59,131.5-131.5,131.5h0ZM170.1,40.8c-71.2,0-129.3,58-129.3,129.3s58,129.3,129.3,129.3,129.3-58,129.3-129.3S241.3,40.8,170.1,40.8h0Z"></path>
  <path class="st2" d="M170.1,338.9C77.1,338.9,1.3,263.1,1.3,170.1S77.1,1.3,170.1,1.3s168.8,75.8,168.8,168.8-75.8,168.8-168.8,168.8ZM170.1,3.6C78.3,3.6,3.6,78.3,3.6,170.1s74.7,166.5,166.5,166.5,166.5-74.7,166.5-166.5S261.9,3.6,170.1,3.6Z"></path>
  <g>
    <rect class="st2" x="312.4" y="163.5" width="13.1" height="13.1"></rect>
    <g class="st3">
      <path class="st2" d="M325.3,170c0,.5,0,.8-.1,1.2-.1.5-.2.8-.3,1.2-.1.3-.3.8-.6,1.1s-.5.7-.8,1c-.3.3-.6.6-1,.8-.3.2-.7.5-1.1.6-.3.1-.8.2-1.2.3s-.8.1-1.2.1-.8,0-1.2-.1-.8-.2-1.2-.3c-.3-.1-.8-.3-1.1-.6s-.7-.5-1-.8-.6-.6-.8-1c-.2-.3-.5-.7-.6-1.1-.1-.3-.2-.8-.3-1.2-.1-.5-.1-.8-.1-1.2s0-.8.1-1.2.2-.8.3-1.2c.1-.3.3-.8.6-1.1s.5-.7.8-1,.6-.6,1-.8c.3-.2.7-.5,1.1-.6.3-.1.8-.2,1.2-.3s.8-.1,1.2-.1.8,0,1.2.1.8.2,1.2.3c.3.1.8.3,1.1.6s.7.5,1,.8.6.6.8,1c.2.3.5.7.6,1.1.1.3.2.8.3,1.2s.1.8.1,1.2Z"></path>
    </g>
  </g>
  <path class="st2" d="M25.8,232.7c.3.7.7,1,1.1,1.1.3.1.8.1,1.2-.1.5-.2,1-.5,1.6-.8l11-5.5c.3-.1.7-.3,1-.5.3-.1.6-.2.9-.3,0-.3-.3-.6-.5-.9,0-.3-.3-.6-.5-.9l1.1-.6c.5.9.9,1.8,1.4,2.7.5.9,1,1.9,1.5,2.8.8,1.6,1.4,3.1,1.5,4.4.2,1.2,0,2.4-.3,3.4-.5.9-1.1,1.7-2.3,2.3-.7.3-1.4.6-2.3.7-.8.1-1.7,0-2.6-.2-.9-.3-1.9-.9-2.8-1.8s-1.8-2.3-2.7-4c0-.1,0-.2-.2-.3,0-.2-.2-.3-.2-.6l-3.6,1.8c-.5.2-.9.5-1.1.6-.3.1-.6.2-.9.3,0,.2.3.6.5.8,0,.2.2.5.5.8,0,.2.2.6.5.8l-1.1.6-3.1-6.2.6-.5h0ZM34.7,233.3c0,.3.2.7.3.9s.2.5.5.8c.5,1,1.1,1.7,1.9,2.4s1.6,1,2.6,1.1c.9.1,1.9-.1,2.8-.6.8-.3,1.4-.9,1.8-1.4.5-.6.7-1.1.8-1.8v-2c0-.7-.5-1.5-.8-2.3-.3-.6-.7-.9-1-1-.3-.1-.8,0-1.2.1-.5.2-1,.5-1.6.8l-6,3h-.1Z"></path>
  <path class="st2" d="M39.3,259.4c-1-1.5-1.6-3-1.9-4.3-.2-1.4,0-2.7.2-4s1-2.4,1.8-3.4c.8-1,1.7-1.8,2.7-2.6,1-.7,2-1.2,3.3-1.6,1.2-.3,2.5-.5,3.9-.5,1.4.1,2.6.5,3.7,1.1,1.2.7,2.3,1.7,3.3,3.1,1,1.5,1.6,2.8,1.8,4.2s0,2.7-.2,4c-.3,1.2-.9,2.4-1.7,3.4s-1.6,1.8-2.6,2.5c-1,.7-2,1.1-3.3,1.6s-2.5.5-3.9.5c-1.4-.1-2.6-.5-3.7-1.1s-2.5-1.5-3.4-2.8h0ZM40.3,258.7c.7,1,1.5,1.7,2.4,2,.9.5,1.8.7,2.8.7s2-.2,3.1-.6,1.9-.8,2.8-1.4c1-.7,1.8-1.5,2.6-2.4.8-.9,1.4-1.9,1.8-3,.5-1,.6-2.2.6-3.2s-.5-2.2-1-3.1c-.7-1-1.5-1.7-2.4-2.2-.9-.5-1.9-.7-3-.7s-2,.2-3.1.6-1.9.8-2.8,1.4-1.7,1.4-2.4,2.3c-.8.9-1.4,1.8-1.8,3-.5,1-.7,2.2-.7,3.3s.3,2.2,1,3.2Z"></path>
  <path class="st2" d="M49,271.5l.7-.7c.6.5,1,.8,1.4.8s.8-.2,1.2-.5.8-.7,1.4-1.1l9-8.3c.2-.2.6-.5.8-.7.2-.2.6-.5.8-.6-.2-.2-.5-.5-.7-.7-.2-.2-.5-.5-.7-.7l.9-.8,4.3,4.7-.7.7c-.5-.5-.9-.8-1.4-.8s-.8.1-1.2.5c-.3.3-.8.7-1.4,1.1l-9,8.3c-.3.3-.7.7-1,.9-.2.2-.5.5-.7.6l3.6,3.9c.8.9,1.7,1.2,2.7,1.2s2-.7,3.3-1.8l.7.7-4.4,3.9-9.7-10.6Z"></path>
  <path class="st2" d="M79.7,282c.6-.7.9-1.5,1.1-2.4.2-.9.2-1.7,0-2.6s-.8-1.6-1.6-2.4c-.9-.8-1.8-1.1-2.7-1s-1.6.5-2.3,1.1c-.6.6-.8,1.2-.8,1.9s0,1.5.5,2.3.6,1.6,1,2.4c.3.7.7,1.5,1,2.2.3.8.6,1.5.7,2.3s0,1.5,0,2.2-.6,1.5-1.1,2.2c-.7.8-1.5,1.4-2.4,1.6-.9.2-1.9.2-3,0-1-.3-2.2-.9-3.2-1.8-.7-.6-1.2-1.2-1.8-2-.6-.8-.9-1.6-1.1-2.4l-.7,1-1.1-.9,3.7-4.7.8.7c-1,1.4-1.4,2.6-1.1,4s.9,2.5,2,3.5c.6.5,1.1.8,1.8,1s1.2.2,1.9,0c.7-.1,1.1-.6,1.7-1.1.6-.7.8-1.4.9-2,0-.7,0-1.5-.3-2.3-.2-.8-.6-1.6-1-2.4-.3-.7-.7-1.5-.9-2.2-.3-.7-.6-1.5-.7-2.2s0-1.5,0-2.2.6-1.4,1.1-2.2c.3-.3.7-.7,1.2-1,.5-.3,1.1-.6,1.7-.7.7-.1,1.4-.1,2.2.2s1.6.7,2.5,1.5c.6.5,1.1,1,1.7,1.8.6.7.9,1.6,1.1,2.5l.7-1,1.1.9-4.1,4.8-.7-.6h0Z"></path>
  <path class="st2" d="M76.6,297.3l.6-.8c.6.3,1.1.5,1.5.3s.7-.3,1-.8.7-.9,1-1.5l6.7-10.2c.2-.3.5-.6.6-.9.2-.2.3-.6.6-.8-.3-.1-.6-.3-.9-.5s-.6-.3-.9-.6l.7-1,5.3,3.5-.6.8c-.6-.3-1.1-.5-1.5-.3s-.8.3-1,.8c-.3.5-.7.9-1,1.5l-2.5,3.9,1.8,1.1,6-2.7c.5-.2.9-.3,1.5-.6s1-.3,1.6-.3c-.2-.1-.5-.3-.8-.5-.2-.1-.5-.3-.8-.5l.7-1,5.1,3.3-.5.8c-.7-.3-1.4-.7-2-.8-.7-.1-1.4-.2-2-.1s-1.7.5-2.8,1l-4.8,2.2c.2.6.5,1.1.5,1.7v1.6l.3,5.2c0,1.1.2,2,.3,2.7,0,.6.3,1.1.6,1.4.2.3.6.6.9.8l-.6.8-3-1.9c0-.1-.3-.3-.5-.8,0-.3-.2-.9-.2-1.4s0-1.1-.2-1.7l-.3-5.7v-1.7c0-.6-.2-1-.3-1.4l-1.1-.7-3.4,5.2c-.2.5-.6.8-.7,1.1-.2.3-.3.6-.6.7.3.1.6.3.9.5s.6.3.9.5l-.7,1-5.3-3.3h0Z"></path>
  <path class="st2" d="M109.6,294.7c-.7-.3-1.1-.3-1.5-.2-.3.1-.7.5-.9.9-.2.5-.6,1-.8,1.6l-5.5,10.8c-.2.5-.5.8-.6,1.1-.2.3-.3.6-.5.8.3.1.7.2.9.5.3.1.6.2.9.5l-.6,1.1-5.7-2.8.5-.8c.7.3,1.1.3,1.6.2.3-.1.7-.5.9-.9.2-.5.6-1,.8-1.6l5.6-10.9c.2-.3.3-.7.6-.9s.3-.6.5-.8c-.3-.1-.6-.2-.9-.5-.3-.1-.7-.2-.9-.5l.6-1.1,5.7,3-.7.6Z"></path>
  <path class="st2" d="M114.4,317.6l.5-1.2c1.5-1.1,3.4-2.5,5.7-4.3,2.3-1.7,5.1-4.1,8.5-6.9.3-.3.8-.7,1.1-1,.5-.3.8-.6,1.4-.9l-6.9-2.2c-1-.3-2-.2-2.7.3-.8.6-1.4,1.6-1.9,3.1l-.9-.3,1.9-5.6,13.4,4.3-.3.9-14.4,11.6c-.6.5-1,.8-1.5,1s-.8.5-1.1.6l6.6,2c1.2.3,2.3.3,3.3-.1s1.8-1.5,2.3-3l.9.3-1.9,5.5-13.7-4.1h0Z"></path>
  <path class="st2" d="M140.6,325l-2.7-15.7c-.1-1-.3-1.8-.5-2.5-.1-.6-.1-1.1-.2-1.6-.2,0-.6,0-.8-.1-.2,0-.6-.1-.8-.1l.2-1.2,6.8,1v.9c-1.2-.1-1.9,0-2.2.5s-.3,1.1-.2,2.4.3,2.5.6,3.5.5,2.2.6,3.4c.1.9.3,1.7.5,2.5.1.8.3,1.6.5,2.5h0c.1-.3.3-.7.5-1,.1-.3.3-.7.5-1,.1-.3.3-.6.5-.9l.3-.7c.8-1.6,1.6-3.2,2.3-4.7.8-1.5,1.4-2.8,1.9-4s1-1.9,1.2-2.5h.9c.1.8.2,1.6.3,2.6.2,1,.3,2,.6,3.2s.3,2.2.6,3.2c.1,1,.3,1.8.5,2.4.1.9.3,1.7.5,2.6.1.9.3,1.7.5,2.7h.1c.2-.6.6-1,.8-1.7.3-.6.6-1.1.9-1.8.7-1.4,1.2-2.4,1.7-3.3l1.1-2.3c.3-.6.6-1.1.8-1.6s.5-.9.7-1.2c.1-.3.3-.6.6-1,.2-.3.5-.7.7-.9-.3,0-.8-.1-1.1-.1s-.8-.1-1.1-.1l.2-1.2,5.7.9v.9c-.8,0-1.2,0-1.7.2s-.8.5-1.1,1-.8,1.4-1.4,2.4c-1.2,2.4-2.5,4.8-3.6,7.2-1.1,2.4-2.4,4.7-3.6,6.9h-.8c0-.1-2.4-13-2.4-13-.1-.6-.2-1-.2-1.5-.1-.5-.2-1-.2-1.5l-.7,1.4-.7,1.4-5.9,11.6h-1.2Z"></path>
  <path class="st2" d="M171.6,308.6c-.7,0-1.1.1-1.5.5-.2.3-.5.7-.5,1.2s-.1,1.1-.1,1.8v12c-.1.5-.1.9-.1,1.4s0,.7-.1.9h2v1.2h-6.4v-1c.7,0,1.2-.2,1.5-.5s.5-.7.5-1.2,0-1.1.1-1.8v-12.3c.1-.3.1-.8.1-1.1s0-.7.1-.9h-2v-1.2h6.4v1h0Z"></path>
  <path class="st2" d="M175.2,327.7v-.9c.5,0,.9-.2,1.1-.6s.5-.8.7-1.4c.1-.6.3-1.1.6-1.9l4.4-16.4h.7c0-.1,7.7,15.4,7.7,15.4.2.3.5.9.7,1.5.2.6.3,1.1.3,1.6.3,0,.7-.1.9-.1.3,0,.7-.1.9-.1v1.2c.1,0-6.4.6-6.4.6v-.9c.6-.1,1-.2,1.2-.6s.2-.7.1-1.1c-.1-.5-.2-.8-.3-1.1l-1.2-2.6-7.4.8-.7,3.1c-.1.5-.2.8-.2,1.1-.1.2-.2.6-.2.9.3,0,.8-.1,1.1-.1s.7-.1,1.1-.1v1.2c.1,0-5.2.5-5.2.5h0ZM179.8,319.8l6.6-.6-2.5-5.2c-.2-.6-.6-1.1-.8-1.7s-.6-1.1-.8-1.7h0c-.1.6-.3,1.1-.5,1.6-.1.6-.3,1.1-.5,1.7l-1.6,5.9h0ZM189,333.8c-.9.1-1.7-.1-2.3-.6s-.9-1.1-1-2c-.1-.8.1-1.6.7-2.3s1.2-1.4,2.2-1.9c.9-.6,1.8-1,2.7-1.5v.7c-.6.2-1.1.7-1.7,1-.6.5-.9.9-1.2,1.5s-.5,1.1-.3,1.7c0,.6.2,1,.7,1.4.3.3.8.5,1.2.5s.7-.1.9-.3c.3-.2.6-.3.8-.7l.6.5c-.3.5-.8.9-1.4,1.4-.6.6-1.1.8-1.8.8h0Z"></path>
  <path class="st2" d="M196.9,325.4l-.2-1.2c.7-1.7,1.6-3.9,2.7-6.6s2.4-6.1,3.9-10.2c.1-.5.3-.9.6-1.5.2-.5.5-.9.7-1.5l-7,1.7c-1.1.2-1.8.8-2.2,1.7-.3.8-.5,2,0,3.6l-.9.2-1.1-5.8,13.7-3.1.2,1-6.6,17.3c-.2.7-.6,1.2-.7,1.6-.2.5-.5.8-.7,1.1l6.7-1.6c1.2-.3,2.2-.9,2.8-1.8.7-.9.8-2.2.5-3.7l.9-.2,1.1,5.7-14.4,3.3h0Z"></path>
  <path class="st2" d="M223.6,310.4c-.2-.8-.6-1.2-.9-1.6-.3-.2-.8-.3-1.2-.2-.5.1-1.1.3-1.8.6l-1.9.8,2.2,6.1c.2.5.3.9.5,1.2.1.3.2.7.2.9l5.1-1.9c.8-.3,1.4-.7,1.9-1.1s.8-1,.9-1.7,0-1.6-.5-2.6l.9-.3,1.7,5.2-13.7,5-.3-.9c.7-.2,1-.6,1.2-1,.1-.3.1-.8,0-1.2s-.3-1-.6-1.7l-4.2-11.6c-.1-.3-.2-.7-.3-1s-.2-.7-.2-.9c-.3.1-.7.2-.9.5-.3.1-.7.2-.9.5l-.5-1.1,12.8-4.7,1.8,4.7-.9.3c-.3-1-.8-1.8-1.4-2.3s-1.1-.7-1.7-.7-1.2.1-1.9.5l-2.3.9c-.7.2-1.1.6-1.2.9-.2.3-.2.8-.1,1.2.1.5.2,1.1.6,1.8l1.6,4.3,5-1.8-1-2.3,1.1-.5,2,5.6-1,.2h0Z"></path>
  <path class="st2" d="M235.9,313.5l-.5-.8c.6-.3,1-.8,1.1-1.1s0-.8-.2-1.2-.5-1-.8-1.6l-5.7-10.9c-.2-.3-.3-.7-.5-1-.1-.3-.2-.6-.3-.9-.3.2-.6.3-.9.6s-.6.3-.9.6l-.6-1.1,5.7-3,.5.8c-.6.3-1,.7-1,1.1-.1.3,0,.8.1,1.2.2.5.5,1,.8,1.6l2.2,4.1,1.9-1,.6-6.6c0-.5.1-.9.2-1.5s.2-1,.5-1.5c-.2.1-.5.3-.8.5-.2.1-.6.2-.8.5l-.6-1,5.5-2.8.5.8c-.7.5-1.2.9-1.7,1.4-.5.5-.8,1-1.1,1.8-.2.7-.5,1.7-.6,3l-.5,5.2c.7,0,1.2.1,1.7.3.5.2,1,.5,1.5.7l4.8,2.3c1,.5,1.9.9,2.5,1s1.1.2,1.5.1.8-.2,1.1-.3l.5.8-3.1,1.6c-.1.1-.5.1-.8,0-.5-.1-.9-.2-1.4-.5-.6-.2-1-.5-1.6-.7l-5.1-2.5c-.6-.2-1-.5-1.6-.7s-1-.3-1.4-.3l-1.2.7,2.8,5.6c.2.5.5.8.6,1.1s.2.6.3.9c.3-.2.6-.3.9-.6s.6-.3.9-.6l.6,1.1-5.6,3h0Z"></path>
  <path class="st2" d="M262.6,296.8c.6-.5.8-.9.8-1.4s-.1-.8-.5-1.2c-.3-.5-.7-.9-1-1.4l-7.6-9.7c-.2-.3-.5-.6-.7-.9-.2-.3-.3-.6-.6-.8-.2.2-.5.5-.8.7-.2.2-.5.5-.8.7l-.8-1c.8-.7,1.6-1.2,2.4-1.9.8-.7,1.7-1.4,2.5-2,1.5-1.1,2.7-1.9,4-2.4s2.4-.6,3.4-.3,1.9.8,2.7,1.7c.5.6.9,1.2,1.1,2,.3.8.5,1.7.3,2.6-.1,1-.5,2-1.2,3.2-.7,1.1-1.8,2.3-3.4,3.5-.1,0-.2.1-.3.2s-.3.2-.5.3l2.6,3.2c.3.5.6.8.8,1,.2.3.3.6.6.8.2-.2.5-.5.7-.6.2-.2.5-.3.7-.6.2-.2.5-.3.7-.6l.8,1-5.5,4.3-.5-.6h0ZM261.2,287.9c.3-.2.6-.3.8-.6.2-.1.5-.3.7-.6.8-.7,1.5-1.5,1.9-2.4.5-.9.6-1.8.6-2.7-.1-.9-.5-1.8-1.1-2.7-.6-.7-1.1-1.2-1.7-1.5-.6-.3-1.2-.5-1.9-.5s-1.4.2-1.9.5c-.7.3-1.4.7-2,1.2-.6.5-.8.8-.8,1.1s.1.8.5,1.1c.3.5.7.9,1,1.4l4.1,5.6h0Z"></path>
  <path class="st2" d="M285.9,278c-1.2,1.4-2.5,2.3-3.9,2.7-1.4.6-2.6.7-4,.6-1.2-.1-2.5-.5-3.6-1s-2.2-1.2-3.1-2.2c-.9-.8-1.6-1.8-2.3-3s-1-2.4-1.1-3.6-.1-2.6.3-4c.5-1.4,1.1-2.6,2.3-3.9,1.2-1.2,2.5-2.2,3.7-2.6,1.4-.5,2.6-.7,4-.6s2.5.5,3.7,1c1.1.6,2.2,1.2,3.1,2,.9.8,1.6,1.8,2.2,3s1,2.4,1.2,3.6c.2,1.4.1,2.6-.3,4-.3,1.4-1.1,2.6-2.3,3.9h0ZM284.9,277.1c.8-.9,1.4-1.8,1.6-2.7.2-1,.2-1.9,0-3s-.6-1.9-1.1-2.8c-.6-.9-1.2-1.7-1.9-2.5-.9-.8-1.8-1.5-2.8-2s-2.2-.9-3.3-1.1-2.2-.1-3.3.1c-1,.2-1.9.8-2.8,1.7s-1.4,1.8-1.6,2.7c-.2,1-.2,1.9,0,3s.6,1.9,1.1,2.8,1.2,1.7,1.9,2.5c.8.7,1.7,1.4,2.7,1.9s2.2,1,3.3,1.2,2.3.2,3.3,0c1.1-.2,2.2-.9,3-1.8h0Z"></path>
  <path class="st2" d="M295.6,266l-.7-.6c.3-.6.6-1.1.5-1.5s-.3-.8-.8-1c-.5-.3-.9-.7-1.5-1l-10-7c-.3-.2-.6-.5-.9-.7-.2-.2-.6-.5-.8-.6-.2.3-.3.6-.6.9s-.3.6-.6.9l-1-.7,3.6-5.2.8.6c-.3.6-.6,1-.5,1.5.1.5.3.8.7,1s.9.7,1.5,1l10,7c.5.3.8.6,1,.8.3.2.6.5.7.6l3-4.4c.7-1,.9-1.9.7-2.8-.2-.9-1-1.8-2.4-2.8l.6-.8,4.7,3.5-8,11.4h0Z"></path>
  <path class="st2" d="M311.5,241.6c-.8,1.6-1.8,2.8-3,3.7s-2.3,1.5-3.6,1.7c-1.2.2-2.5.2-3.7,0s-2.5-.6-3.5-1.1-2-1.2-3-2.2c-.9-.9-1.6-1.9-2.2-3.2s-.8-2.5-.8-3.9.3-2.8,1.1-4.3c.8-1.6,1.7-2.7,2.8-3.6,1.1-.8,2.4-1.4,3.6-1.7,1.2-.2,2.6-.3,3.9-.1s2.4.6,3.5,1.1c1,.6,2,1.2,3,2.2.9.9,1.6,1.9,2.2,3.2s.8,2.5.8,3.9-.3,2.8-1.1,4.3ZM310.5,241c.6-1,.8-2,.7-3.1,0-1-.3-1.9-.8-2.8s-1.1-1.7-1.9-2.5c-.8-.7-1.6-1.4-2.6-1.8-1-.6-2.2-.9-3.3-1.1s-2.3-.3-3.4-.2-2.2.5-3.1,1c-.9.6-1.7,1.4-2.2,2.4-.6,1-.8,2-.7,3.1,0,1,.3,1.9.8,2.8.5.9,1.1,1.7,1.9,2.5s1.7,1.4,2.6,1.8c.9.5,1.9.8,3.1,1.1,1.1.2,2.3.3,3.4.2s2.2-.5,3.2-.9c.9-.6,1.7-1.4,2.3-2.5Z"></path>
  <path class="st2" d="M32.2,146.9v-1.6c-.2-.3-.6-.6-1.1-.7-.5-.1-1-.2-1.7-.5l-11.9-2.6c-.3-.1-.7-.1-1-.2-.3-.1-.7-.2-.9-.2v2l-1.2-.2c.2-1,.5-2,.6-3.1.2-1,.5-2,.7-3.2.3-1.8.9-3.3,1.6-4.4.7-1.1,1.5-1.9,2.4-2.4.9-.5,2-.6,3.2-.5.7.1,1.5.3,2.2.8.7.5,1.4,1,1.9,1.8.6.8.9,1.9,1,3.2,0,1.4,0,3-.3,4.8v1l4,.9c.5.1.9.2,1.2.3s.7.2.9.2v-2.7l1.2.2-1.5,6.8h-1.1ZM25.6,141c0-.3.2-.7.2-.9s0-.6.2-.9c.2-1,.2-2,0-3.1-.2-.9-.7-1.8-1.4-2.5-.7-.7-1.5-1.1-2.6-1.4-.9-.2-1.6-.2-2.3-.1-.7.1-1.2.5-1.7.8-.5.5-.9,1-1.2,1.6-.3.7-.6,1.5-.8,2.3v1.5c.2.3.6.6,1,.7s1,.2,1.7.5l6.7,1.6h.1Z"></path>
  <path class="st2" d="M40.8,121.3c-.7,1.7-1.5,3.1-2.5,4-1,1-2.2,1.7-3.4,2-1.2.5-2.5.6-3.7.5s-2.5-.3-3.6-.8-2.2-1-3.2-1.8c-1-.8-1.8-1.8-2.5-3-.7-1.1-1-2.4-1.2-3.7,0-1.4,0-2.8.7-4.4s1.5-3,2.5-3.9c1-1,2.2-1.7,3.4-2,1.2-.5,2.5-.6,3.7-.6s2.5.2,3.6.7,2.2,1,3.2,1.8c1,.8,1.8,1.8,2.5,3,.7,1.1,1.1,2.4,1.2,3.7.1,1.5,0,3-.7,4.5ZM39.7,120.8c.5-1.1.6-2.2.3-3.2,0-1-.6-1.9-1.1-2.7-.6-.8-1.4-1.6-2.2-2.2-.9-.7-1.8-1.1-2.7-1.5-1.1-.5-2.3-.7-3.4-.8-1.2,0-2.4,0-3.4.2-1.1.2-2,.7-3,1.4s-1.5,1.6-1.9,2.6c-.5,1.1-.6,2.2-.3,3.2,0,1,.6,1.9,1.1,2.7.6.8,1.4,1.6,2.2,2.2.9.7,1.8,1.1,2.8,1.5s2,.6,3.2.7,2.3.1,3.4-.1c1.1-.2,2.2-.7,3.1-1.4.8-.5,1.5-1.5,1.9-2.6Z"></path>
  <path class="st2" d="M45.3,109.3l-.8-.5c.3-.7.5-1.1.2-1.6,0-.3-.5-.7-.9-1-.5-.2-.9-.6-1.6-.9l-10.8-5.9c-.3-.2-.7-.3-.9-.6-.3-.2-.6-.3-.8-.5,0,.3-.3.6-.5.9s-.3.6-.5.9l-1.1-.6,3.1-5.6.8.5c-.3.6-.5,1.1-.2,1.5,0,.3.5.7.9,1,.5.2.9.6,1.6.9l10.7,5.8c.5.2.8.5,1.1.7s.6.3.8.5l2.5-4.7c.6-1,.7-2,.3-3-.3-.9-1.2-1.7-2.7-2.5l.5-.8,5.1,3-6.8,12.4h0Z"></path>
  <path class="st2" d="M41.5,78.8c-.3.6-.6,1.1-.5,1.5,0,.5.3.8.8,1,.5.3.9.7,1.5,1l10,6.8c.5.3.8.6,1.1.8s.6.5.7.6c.2-.3.3-.6.6-.9s.3-.6.6-.9l1,.7-3.6,5.3-.8-.6c.3-.6.6-1.1.5-1.5s-.3-.7-.8-1c-.5-.3-.9-.7-1.5-1l-10.1-6.9c-.3-.2-.6-.5-.9-.7-.2-.2-.6-.5-.8-.6-.2.3-.3.6-.6.9s-.3.6-.6.9l-1-.7,3.6-5.3s.8.6.8.6Z"></path>
  <path class="st2" d="M55.7,69c-.7-.6-1.6-.9-2.4-1.1-.9-.2-1.7-.2-2.6,0s-1.6.8-2.4,1.6c-.8.9-1,1.8-.9,2.7,0,.9.5,1.6,1.1,2.2.6.5,1.2.8,1.9.8s1.5,0,2.3-.5,1.6-.7,2.4-1c.7-.3,1.5-.7,2.2-1,.8-.3,1.5-.6,2.3-.7s1.5,0,2.2,0,1.5.6,2.2,1.1c.8.7,1.4,1.5,1.6,2.4.3.9.3,1.9,0,3-.2,1-.9,2.2-1.8,3.2-.6.7-1.2,1.2-1.9,1.8-.8.6-1.6.9-2.4,1.1l1,.7-.9,1.1-4.8-3.7.7-.8c1.4,1,2.7,1.4,4,1.1,1.4-.2,2.5-1,3.4-2.2s.8-1.1,1-1.8c.2-.7.2-1.2,0-1.9-.2-.6-.6-1.1-1.1-1.7-.7-.6-1.4-.8-2-.8s-1.5,0-2.3.5-1.6.6-2.4,1c-.7.3-1.5.7-2.2,1s-1.5.6-2.2.7-1.5,0-2.2,0-1.5-.5-2.2-1.1c-.3-.3-.7-.7-1-1.2-.3-.5-.6-1-.7-1.7s0-1.4,0-2.2c.2-.8.7-1.6,1.5-2.5.5-.6,1-1.1,1.8-1.7.7-.6,1.6-.9,2.5-1.2l-1-.7.9-1.1,4.8,4-.5.8h.1Z"></path>
  <path class="st2" d="M69.6,74l-.7-.7c.5-.6.8-1,.8-1.4s0-.8-.5-1.2-.7-.8-1.1-1.4l-8.3-9.1c-.2-.2-.5-.6-.7-.8s-.5-.6-.6-.8l-.7.7-.7.7-.8-.9,4.8-4.3.7.7c-.5.5-.8.9-.8,1.4s0,.8.5,1.2.7.8,1.1,1.4l3.2,3.5,7.5-6.8-4.2-4.3c-.2-.2-.5-.6-.7-.8s-.5-.6-.6-.8l-.7.7-.7.7-.8-.9,4.8-4.3.7.7c-.5.5-.8.9-.8,1.4s0,.8.5,1.2c.3.5.7.8,1.1,1.4l8.2,9c.3.3.7.7.9,1,.2.2.5.6.6.7l.7-.7.7-.7.8.9-4.9,4.2-.7-.7c.5-.6.8-.9.8-1.4s0-.8-.5-1.2-.7-.8-1.1-1.4l-3.5-3.9-7.5,6.9,4.1,4.5c.3.3.7.7.9,1,.2.2.5.6.6.7l.7-.7.7-.7.8.9s-4.5,4.3-4.5,4.3Z"></path>
  <path class="st2" d="M92.5,53.8c.6-.5.9-.8,1-1.1s0-.8-.2-1.2-.6-1-.9-1.6l-6.2-10.6c-.2-.3-.3-.7-.6-.9,0-.3-.3-.6-.5-.8-.2.2-.6.3-.8.6s-.6.3-.8.6l-.7-1c.9-.6,1.7-1,2.6-1.6s1.8-1.1,2.7-1.7c1.6-.9,3-1.6,4.3-1.8,1.2-.2,2.4-.2,3.4,0s1.8,1,2.5,2c.5.6.7,1.4.9,2.2.2.8.2,1.7,0,2.7-.2.9-.8,1.9-1.6,3-.8,1-2.2,2-3.7,3.1,0,0-.2,0-.3.2-.2,0-.3.2-.6.2l2.2,3.5c.2.5.5.8.7,1.1s.3.6.5.8c.2-.2.5-.3.7-.5s.5-.3.7-.5.5-.3.7-.5l.7,1.1-6,3.5-.6-1h0ZM92.4,44.9c.3,0,.6-.3.8-.5.2,0,.5-.2.8-.5.9-.6,1.7-1.2,2.2-2,.6-.8.8-1.7.9-2.6,0-.9-.2-1.9-.8-2.8-.5-.8-1-1.4-1.6-1.7-.6-.5-1.1-.7-1.8-.7s-1.4,0-2,.2-1.5.6-2.2,1c-.6.3-.9.7-.9,1s0,.8.2,1.2c.2.5.6.9.9,1.6,0,0,3.5,5.7,3.5,5.7Z"></path>
  <path class="st2" d="M117.2,42.4c-1.7.7-3.2,1-4.7.9-1.5,0-2.7-.5-3.9-1s-2.2-1.5-3-2.4c-.8-1-1.5-2-1.9-3.2-.5-1.1-.8-2.3-.8-3.5s0-2.5.3-3.9c.3-1.2,1-2.4,1.9-3.5.9-1,2.2-1.9,3.6-2.5,1.6-.7,3.1-.9,4.5-.9s2.7.5,3.9,1.1,2.2,1.5,3,2.4,1.5,2,1.9,3.1c.5,1.1.7,2.3.8,3.5s0,2.5-.3,3.9-1,2.4-1.9,3.5c-.8,1-1.9,1.8-3.5,2.5ZM116.7,41.3c1.1-.5,1.9-1,2.5-1.9s1-1.7,1.2-2.7.2-2,0-3.1-.3-2-.8-3.1c-.5-1.1-1-2-1.8-3.1-.8-.9-1.6-1.7-2.5-2.4-.9-.7-1.9-1-3.1-1.2-1-.2-2.2,0-3.2.5-1.1.5-1.9,1.1-2.5,1.9s-1,1.7-1.2,2.7-.2,2,0,3.1.3,2,.8,3.1c.5.9.9,1.9,1.7,2.8.7.9,1.5,1.7,2.5,2.4.9.7,1.9,1.1,3.1,1.4,1,.3,2.2.2,3.3-.3Z"></path>
  <path class="st2" d="M128.9,37.5l-.2-.9c.7-.2,1.1-.5,1.2-.9.2-.3.2-.8.1-1.2-.1-.5-.2-1.1-.5-1.7l-3.1-11.9c-.1-.3-.2-.7-.2-1-.1-.3-.1-.7-.2-.9-.3,0-.7.2-1,.3-.3,0-.7.2-1,.3l-.3-1.2,6.1-1.6.2.9c-.7.2-1.1.5-1.2.8-.2.3-.2.8-.1,1.2.1.5.2,1.1.5,1.7l3.1,11.8c.1.5.2.9.3,1.2s.1.7.1.9l5.1-1.4c1.1-.3,1.9-.9,2.4-1.8.5-.9.5-2.2,0-3.7l.9-.2,1.4,5.7-13.5,3.6h0Z"></path>
  <path class="st2" d="M154.7,32.8c-1.8.2-3.4,0-4.7-.3-1.4-.5-2.5-1.1-3.4-2s-1.6-1.9-2.2-3.2c-.6-1.1-.8-2.4-1-3.6-.1-1.1-.1-2.4.2-3.6.2-1.2.8-2.4,1.5-3.5s1.6-2,2.8-2.8c1.1-.8,2.6-1.2,4.2-1.4,1.7-.2,3.3,0,4.5.5,1.4.5,2.5,1.1,3.4,2.2.9.9,1.7,1.9,2.2,3.2.6,1.1.9,2.4,1,3.5.1,1.1.1,2.4-.2,3.6-.2,1.2-.8,2.5-1.5,3.5s-1.6,2-2.8,2.8-2.4,1-4.1,1.2h0ZM154.5,31.5c1.1,0,2.2-.5,3-1.1.8-.6,1.5-1.4,1.9-2.3s.8-1.9,1-3c.2-1,.2-2.2.1-3.2-.1-1.1-.5-2.3-.9-3.4-.5-1.1-1-2.2-1.8-3-.7-.9-1.6-1.6-2.5-2-1-.5-2-.7-3.2-.5-1.1.1-2.2.5-3,1.1-.8.6-1.5,1.4-1.9,2.3s-.8,1.9-1,3c-.2,1-.2,2.2-.1,3.2.1,1,.3,2,.8,3.2s1,2,1.7,3,1.6,1.6,2.5,2.2c1,.6,2.2.8,3.4.6h0Z"></path>
  <path class="st2" d="M173.8,31.2v-.9c.7,0,1.1,0,1.5-.3s.6-.7.9-1.1c.2-.5.6-1.1.9-1.8l7.3-15.3h.7c0,.1,4.8,16.8,4.8,16.8.1.5.2.9.3,1.6.1.7.1,1.1.1,1.6h2v1.2c-.1,0-6.6-.6-6.6-.6v-.9c.8,0,1.4,0,1.6-.3s.3-.7.3-1-.1-.8-.2-1.1l-.8-2.7-7.4-.6-1.2,3c-.2.5-.3.8-.5,1-.1.2-.2.6-.5.8h2.3v1.2c-.1,0-5.6-.5-5.6-.5h0ZM179.6,24.4l6.5.6-1.5-5.6c-.1-.6-.3-1.2-.5-1.8-.1-.6-.3-1.2-.5-1.8h0c-.2.5-.5,1-.7,1.5-.2.5-.5,1-.8,1.6,0,0-2.6,5.6-2.6,5.6Z"></path>
  <path class="st2" d="M207.2,22.1c.1-.9.1-1.8-.1-2.6-.2-.9-.6-1.6-1.1-2.3s-1.5-1.1-2.5-1.4c-1.1-.2-2,0-2.8.3-.8.6-1.2,1.2-1.4,2-.2.8-.1,1.5.2,2s.8,1.2,1.5,1.8c.6.6,1.2,1.1,2,1.6.7.5,1.2.9,1.9,1.5.6.6,1.1,1,1.6,1.7.5.6.8,1.2,1,1.9.2.7.2,1.5,0,2.4-.2,1-.7,1.8-1.4,2.5-.7.7-1.6,1.1-2.6,1.4-1,.2-2.3.2-3.6,0-.8-.2-1.7-.5-2.5-.9-.8-.5-1.6-.9-2.2-1.6v1.2c-.1,0-1.6-.3-1.6-.3l1.1-5.9,1.1.2c-.2,1.7,0,3,.9,4.1.8,1,2,1.8,3.5,2,.7,0,1.4.2,2,0,.7,0,1.2-.5,1.7-.9.5-.5.8-1,.9-1.8.2-.8.1-1.6-.2-2.3s-.8-1.2-1.4-1.8-1.2-1.1-2-1.7c-.7-.5-1.2-.9-1.8-1.5-.6-.5-1.1-1-1.6-1.6s-.8-1.2-1-1.9c-.2-.7-.2-1.5,0-2.4.1-.5.3-1,.6-1.5.3-.6.7-1,1.2-1.4.6-.5,1.1-.7,2-.9h2.8c.7,0,1.5.5,2.3.8s1.6.9,2.2,1.7v-1.2c.1,0,1.5.3,1.5.3l-1.4,6.1h-1Z"></path>
  <path class="st2" d="M224.4,27.5c.2-.9.3-1.8.2-2.6-.1-.9-.3-1.7-.9-2.4s-1.2-1.2-2.4-1.6c-1.1-.3-2-.3-2.8,0s-1.4,1-1.6,1.9c-.2.8-.2,1.5,0,2.2.2.7.7,1.2,1.2,1.9.6.6,1.1,1.2,1.8,1.8l1.7,1.7c.6.6,1,1.2,1.5,1.8.5.7.7,1.4.8,2,.1.7,0,1.5-.2,2.4-.3,1-.9,1.8-1.7,2.4s-1.7.9-2.7,1c-1.1,0-2.3,0-3.6-.6-.8-.2-1.6-.7-2.4-1.2s-1.5-1.1-1.9-1.8l-.2,1.2-1.4-.5,1.8-5.8,1,.3c-.5,1.6-.3,3,.5,4.2.7,1.1,1.8,1.9,3.2,2.5.7.2,1.4.3,2,.2.7,0,1.2-.2,1.8-.7s.9-.9,1.1-1.6c.2-.8.3-1.6,0-2.3-.2-.7-.7-1.4-1.1-1.9-.6-.7-1.1-1.2-1.8-1.9l-1.7-1.7c-.6-.6-1-1.1-1.4-1.8s-.7-1.2-.8-2c-.1-.7,0-1.5.2-2.4.1-.5.5-.9.8-1.4s.8-.9,1.4-1.2,1.2-.6,2-.7,1.8,0,2.8.5c.7.2,1.4.6,2.2,1s1.5,1.1,2,1.9l.3-1.1,1.4.5-2,5.9-1.1-.2h0Z"></path>
  <path class="st2" d="M233.3,47.2c-1.6-.8-2.8-1.8-3.7-3s-1.5-2.3-1.7-3.6c-.2-1.2-.2-2.5,0-3.7s.6-2.5,1.1-3.5c.6-1,1.2-2,2.2-3,.9-.9,1.9-1.6,3.2-2.2s2.5-.8,3.9-.8,2.8.3,4.3,1.1c1.6.8,2.7,1.7,3.6,2.8s1.4,2.4,1.7,3.6.3,2.6.1,3.9c-.2,1.2-.6,2.4-1.1,3.5-.6,1-1.2,2-2.2,3-.9.9-1.9,1.6-3.2,2.2s-2.5.8-3.9.8-2.8-.5-4.3-1.1ZM233.8,46.2c1,.6,2,.8,3.1.7,1,0,1.9-.3,2.8-.8s1.7-1.1,2.4-1.9,1.4-1.6,1.8-2.6c.6-1,.9-2.2,1.1-3.3s.3-2.3.2-3.4-.5-2.2-1-3.1-1.4-1.7-2.4-2.2c-1-.6-2-.8-3.1-.7-1,0-1.9.3-2.8.8s-1.7,1.1-2.5,1.9c-.7.8-1.4,1.7-1.8,2.6-.5.9-.8,1.9-1.1,3.1-.2,1.1-.3,2.3-.2,3.4s.5,2.2.9,3.2c.6.9,1.5,1.7,2.6,2.3h0Z"></path>
  <path class="st2" d="M265.2,50.9c.9-1.6,1.2-3.1.9-4.4-.2-1.4-1.1-2.6-2.4-3.5-.8-.6-1.7-.9-2.6-1.1s-1.9,0-3,0c-1,.2-1.9.7-3,1.4s-1.8,1.6-2.7,2.7c-1,1.5-1.7,3-1.9,4.4-.2,1.5-.1,3,.3,4.2.5,1.2,1.4,2.4,2.5,3.2,1,.7,2.2,1.2,3.4,1.5,1.2.2,2.6,0,3.7-.2l.2.9c-1.4.5-2.5.6-3.6.6s-2.2-.2-3.1-.7c-.9-.3-1.6-.8-2.3-1.2-1.1-.8-2-1.8-2.7-3s-1-2.3-1.2-3.5c-.1-1.2-.1-2.5.2-3.7s.9-2.5,1.7-3.6,1.7-2,2.8-2.8c1-.8,2.3-1.4,3.5-1.7s2.6-.5,4-.2,2.7.8,4.1,1.8c.9.6,1.6,1.4,2.2,2.2s1.1,1.7,1.5,2.6l.8-1.4,1.2.9-3.9,5.3-.8-.6h0Z"></path>
  <path class="st2" d="M278,55.1c-.6-.5-1-.7-1.4-.6-.5,0-.8.2-1.1.6s-.8.8-1.2,1.2l-8.1,9c-.3.3-.7.7-.9,1-.2.2-.5.5-.7.7.2.2.6.5.8.7s.6.5.8.7l-.8.9-4.8-4.3.7-.7c.6.5,1,.7,1.5.6.3,0,.8-.2,1.1-.6s.8-.8,1.2-1.2l8.2-9.1c.2-.2.5-.6.8-.8.2-.2.5-.5.7-.7-.2-.2-.6-.5-.8-.7s-.6-.5-.8-.7l.8-.9,4.8,4.3s-.8.6-.8.6Z"></path>
  <path class="st2" d="M266.8,70.2l.7-.7c.3.5.8.7,1.2.7s.9,0,1.5-.2,1.1-.5,1.8-.7l15.8-6.4.5.5-7.7,15.6c-.2.3-.5.8-.8,1.4-.3.6-.7,1-1,1.2.2.2.5.5.7.7s.5.5.7.7l-.9.8-4.3-4.8.7-.7c.5.6.9.8,1.4.7.3,0,.7-.2,1-.6.2-.3.5-.7.7-1l1.4-2.5-5.1-5.3-3,1.2c-.5.2-.8.3-1,.5-.2,0-.6.2-.9.3.2.2.6.6.8.8s.6.6.8.8l-.9.8-3.9-3.7h0ZM275.7,69.2l4.4,4.9,2.7-5.1c.3-.6.6-1.1.9-1.6.2-.6.6-1.1.9-1.6h0c-.6.2-1,.5-1.6.7s-1,.5-1.6.7l-5.8,2h0Z"></path>
  <path class="st2" d="M299.7,89.3c.9-.7,1.6-1.2,2-1.8s.7-1.2.8-1.8c0-.7-.2-1.4-.8-2.2l-1.4-1.9-12.7,8.7c-.5.3-.8.6-1.1.8s-.6.3-.8.5c.2.3.5.7.7.9.2.3.5.6.7.9l-1,.7-3.7-5.5.8-.6c.5.6.9.9,1.2.9s.8,0,1.2-.3c.5-.2.9-.6,1.5-.9l11.8-8.2-1.7-2.4c-.7-1-1.5-1.5-2.4-1.4-.9,0-2,.6-3.5,1.5l-.6-.9,5-3.3,9.4,13.6-4.9,3.5-.6-.9h0Z"></path>
  <path class="st2" d="M309.7,96.9c-.3-.6-.7-.9-1.1-1s-.8,0-1.2.2-1,.5-1.6.8l-10.6,5.8c-.5.2-.8.5-1.1.6s-.6.3-.8.3c.2.3.3.6.6.9s.3.6.6.9l-1.1.6-3.1-5.6.8-.5c.3.6.8.9,1.1,1s.8,0,1.2-.2,1-.5,1.6-.8l10.8-5.9c.3-.2.7-.3,1-.5s.6-.3.9-.5c-.2-.3-.3-.6-.6-.9s-.3-.6-.6-.9l1.1-.6,3.1,5.6-1,.6Z"></path>
  <path class="st2" d="M298.2,118.3c-.7-1.7-1-3.2-.9-4.7.1-1.5.5-2.7,1-3.9.7-1.1,1.5-2,2.5-3,1-.8,2-1.5,3.2-1.9,1.1-.5,2.3-.7,3.5-.8s2.5,0,3.9.5c1.2.3,2.4,1,3.4,1.9,1,.9,1.9,2.2,2.5,3.6.7,1.6.9,3.2.8,4.5-.1,1.4-.5,2.7-1.1,3.9s-1.5,2.2-2.4,3c-1,.8-2,1.5-3.1,1.9-1.1.5-2.3.7-3.5.8-1.2.1-2.5,0-3.9-.5-1.2-.3-2.4-1-3.4-1.9-1-.7-1.8-1.9-2.5-3.5ZM299.4,118c.5,1.1,1,1.9,1.8,2.6.8.6,1.7,1,2.7,1.2s2,.2,3.1,0c1,0,2-.3,3.1-.8,1.1-.5,2.2-1,3.1-1.8.9-.7,1.7-1.6,2.4-2.5.7-.9,1-1.9,1.2-3s.1-2.2-.3-3.2-1-1.9-1.8-2.6c-.8-.6-1.7-1-2.7-1.2s-2-.2-3.1,0c-1,0-2,.3-3.1.8-.9.3-1.9.9-2.8,1.6s-1.7,1.5-2.4,2.5c-.7.9-1.1,1.9-1.4,3.1-.5.9-.3,2,.2,3.3h0Z"></path>
  <path class="st2" d="M306.2,145.1l12.3-14.4c.2-.2.3-.5.6-.7.2-.2.3-.5.6-.7h0l-11.8,2.8c-.5.1-.9.2-1.4.3-.5.1-.9.2-1.4.2.1.3.2.7.3,1,.1.3.2.7.3,1l-1.2.2-1.1-5.1.9-.2c.1.6.3.9.7,1.1.3.2.7.3,1,.2.3,0,.7,0,.9-.1l13.1-3c.3-.1.7-.1.9-.2.3-.1.6-.1.9-.2-.1-.3-.2-.6-.2-.9-.1-.3-.2-.6-.2-.9l1.2-.2.8,3.3-11.5,13.6c-.2.3-.6.6-.8.9s-.6.6-.8.9h0l12.7-3c.3-.1.7-.1,1-.2.3-.1.7-.1.9-.1-.1-.3-.2-.7-.3-1-.1-.3-.2-.7-.3-1l1.2-.2,1.1,5.1-.9.2c-.2-.7-.5-1.1-.8-1.2-.3-.2-.8-.2-1.2-.1-.5.1-1.1.2-1.7.3l-15.6,3.5-.2-1.4h0Z"></path>
  <g>
    <rect class="st2" x="14.9" y="163.5" width="13.1" height="13.1"></rect>
    <g class="st1">
      <path class="st2" d="M27.8,170v1.2c0,.5-.2.8-.3,1.2,0,.3-.3.8-.6,1.1s-.5.7-.8,1c-.3.3-.6.6-1,.8-.3.2-.7.5-1.1.6-.3.1-.8.2-1.2.3-.5.1-.8.1-1.2.1s-.8,0-1.2-.1c-.5-.1-.8-.2-1.2-.3-.3-.1-.8-.3-1.1-.6s-.7-.5-1-.8c-.3-.3-.6-.6-.8-1-.2-.3-.5-.7-.6-1.1,0-.3-.2-.8-.3-1.2v-2.5c0-.5.2-.8.3-1.2,0-.3.3-.8.6-1.1s.5-.7.8-1,.6-.6,1-.8c.3-.2.7-.5,1.1-.6.3-.1.8-.2,1.2-.3.5-.1.8-.1,1.2-.1s.8,0,1.2.1c.5.1.8.2,1.2.3.3.1.8.3,1.1.6s.7.5,1,.8c.3.3.6.6.8,1,.2.3.5.7.6,1.1,0,.3.2.8.3,1.2v1.2Z"></path>
    </g>
  </g>
</svg>
